<?xml version="1.0" standalone="no"?><!DOCTYPE svg PUBLIC "-//W3C//DTD SVG 1.1//EN" "http://www.w3.org/Graphics/SVG/1.1/DTD/svg11.dtd" [<!ENTITY nbsp " ">]><svg data-noselect="" viewBox="0 0 400 300" width="400" height="300" preserveAspectRatio="none" version="1.1" xmlns="http://www.w3.org/2000/svg" style="background: rgba(255, 255, 255, 0);"><defs></defs> <g id="shape_glQZOPnePc" transform="translate(89.20609434252606,28.77763783311011) rotate(0,115.5,115.5) scale(0.9592545944370037,0.9592545944370037)" filter="" style="cursor: move; opacity: 1;"><g><rect fill="rgba(0,0,0,0)" width="251" height="251" x="-10" y="-10"></rect><svg version="1.1" id="图层_1" xmlns="http://www.w3.org/2000/svg" xmlns:xlink="http://www.w3.org/1999/xlink" x="0px" y="0px" style="enable-background:new 0 0 283.465 283.465;" xml:space="preserve" viewBox="25.49609375 26 231.8515625 231.5625" width="231" height="231" preserveAspectRatio="none" data-parent="shape_glQZOPnePc">
<g>
	<linearGradient id="SVGID_1_" gradientUnits="userSpaceOnUse" x1="332.1856" y1="185.0273" x2="19.8823" y2="106.6633">
		<stop offset="0" style="" stop-color="#92278F"></stop>
		<stop offset="1" style="" stop-color="#27AAE1"></stop>
	</linearGradient>
	<path style="" d="M257.116,137.13c0,18.653-4.791,36.207-13.246,51.64c-0.824,1.496-1.676,2.973-2.556,4.431
		c-0.038,0.047-0.066,0.104-0.095,0.151c-13.729-15.415-28.935-24.078-43.251-26.947c4.895-8.701,7.679-18.662,7.679-29.276
		c0-33.12-27.543-60.361-61.743-61.677c0-0.009-0.01,0-0.01,0c-0.284-0.019-0.559-0.028-0.843-0.038H142.9
		c-0.53-0.01-1.07-0.019-1.6-0.019c-2.859,0-5.681,0.18-8.436,0.53c-1.004,0.123-1.998,0.265-2.992,0.436
		c-0.521,0.095-1.051,0.189-1.581,0.293c-0.918,0.18-1.846,0.379-2.755,0.606c-0.256,0.057-0.511,0.123-0.767,0.189
		c-1.411,0.36-2.803,0.757-4.166,1.202c-1.998,0.644-3.948,1.392-5.852,2.216c-0.947,0.407-1.875,0.843-2.793,1.297
		c-0.009,0-0.009,0-0.019,0.009c-1.856,0.918-3.655,1.913-5.388,2.983c-0.862,0.53-1.714,1.079-2.547,1.648
		c0,0-0.01,0.009-0.019,0.019c-0.786,0.53-1.562,1.089-2.32,1.657c-4.507,3.39-8.521,7.338-11.94,11.731
		c-0.625,0.795-1.221,1.6-1.789,2.424c-0.578,0.824-1.136,1.657-1.666,2.5c-0.805,1.269-1.572,2.575-2.272,3.901
		c-0.246,0.464-0.483,0.928-0.72,1.392c-0.445,0.88-0.862,1.771-1.259,2.67c-0.398,0.928-0.786,1.865-1.146,2.803
		c-0.18,0.473-0.36,0.937-0.521,1.42c-0.17,0.483-0.331,0.966-0.483,1.439c-0.322,0.966-0.606,1.941-0.871,2.926
		c-0.133,0.511-0.265,1.032-0.398,1.543c-0.71,2.964-1.193,6.003-1.439,9.099c-0.047,0.521-0.085,1.042-0.104,1.562
		c-0.066,1.051-0.095,2.111-0.095,3.172v0.407c0.009,1.42,0.066,2.822,0.18,4.213c0.066,1.004,0.161,1.998,0.293,2.983
		c0.047,0.435,0.104,0.862,0.17,1.288c0.047,0.35,0.104,0.701,0.17,1.042c0.047,0.331,0.104,0.653,0.17,0.975
		c0.057,0.369,0.123,0.729,0.208,1.098c0.085,0.473,0.189,0.947,0.303,1.411c0.104,0.473,0.218,0.956,0.341,1.42
		c0.104,0.445,0.218,0.89,0.35,1.325c0.009,0.047,0.019,0.095,0.038,0.142c0.256,0.918,0.53,1.827,0.833,2.727
		c0.303,0.918,0.625,1.827,0.985,2.727c1.146,2.973,2.519,5.823,4.119,8.55c0.568,0.994,1.174,1.96,1.808,2.916
		c0.199,0.322,0.417,0.644,0.644,0.956c0.208,0.312,0.426,0.625,0.663,0.937c1.098,1.553,2.282,3.049,3.541,4.497
		c0.417,0.492,0.852,0.975,1.307,1.458c0.341,0.379,0.701,0.757,1.06,1.127c0.246,0.265,0.511,0.53,0.767,0.776
		c0.549,0.549,1.098,1.079,1.657,1.591c0.568,0.53,1.136,1.042,1.723,1.534c0.587,0.511,1.174,1.004,1.78,1.477
		c0.293,0.246,0.597,0.483,0.909,0.71c0.303,0.246,0.615,0.473,0.928,0.701c1.108,0.824,2.244,1.619,3.418,2.367
		c0.398,0.265,0.805,0.521,1.221,0.767c3.513,2.159,7.272,3.996,11.23,5.473c0.445,0.17,0.89,0.331,1.335,0.483
		c0.89,0.313,1.79,0.606,2.699,0.881c0.095,0.028,0.189,0.057,0.293,0.085c0.464,0.142,0.928,0.275,1.401,0.398
		c1.051,0.293,2.121,0.559,3.21,0.795c0.521,0.114,1.042,0.227,1.572,0.322c1.042,0.208,2.102,0.388,3.172,0.54
		c0.473,0.076,0.937,0.133,1.411,0.189c0.71,0.095,1.42,0.17,2.13,0.237c0.833,0.076,1.657,0.133,2.5,0.18h0.085
		c0.341,0.019,0.691,0.038,1.042,0.047c0.379,0.019,0.757,0.028,1.136,0.038c0.511,0.01,1.023,0.019,1.534,0.019
		c1.96,0,3.901-0.085,5.814-0.256h0.085c0.038-0.009,0.085-0.009,0.123-0.009c0.104-0.01,0.208-0.019,0.313-0.038
		c5.16-0.483,10.131-1.553,14.865-3.143c1.136-0.379,2.272-0.795,3.38-1.231c0.653-0.265,1.297-0.53,1.941-0.814
		c1.155-0.502,2.301-1.032,3.418-1.6l9.27,13.511l1.411,2.045l2.045,2.992c0.369,0.502,0.739,1.004,1.108,1.496
		c0.975,1.307,1.969,2.575,2.973,3.806c0.54,0.644,1.07,1.288,1.61,1.913c0.786,0.918,1.581,1.818,2.386,2.689
		c1.212,1.326,2.443,2.594,3.683,3.825c2.5,2.462,5.075,4.753,7.707,6.865c-1.477,0.9-2.973,1.771-4.497,2.613
		c-5.227,2.878-10.699,5.388-16.399,7.461c-0.066,0.028-0.132,0.057-0.199,0.076c-0.038,0.019-0.076,0.028-0.114,0.038
		c-0.047,0.028-0.085,0.038-0.133,0.047c-12.053,4.365-25.053,6.846-38.65,7.082c-0.634,0.009-1.269,0.019-1.903,0.019H141.3
		c-0.918,0-1.837-0.009-2.755-0.038c-0.076,0.009-0.161,0-0.237,0c-0.909-0.019-1.818-0.057-2.717-0.095
		c-0.388-0.019-0.767-0.038-1.146-0.066c-0.615-0.029-1.231-0.066-1.846-0.114c-0.275-0.019-0.559-0.038-0.833-0.066
		c-0.72-0.047-1.449-0.114-2.168-0.189c-0.17-0.01-0.341-0.019-0.502-0.047c-0.691-0.066-1.382-0.142-2.073-0.227
		c-0.388-0.038-0.776-0.085-1.165-0.142c-0.559-0.066-1.108-0.133-1.657-0.218c-0.492-0.066-0.985-0.142-1.477-0.227
		c-0.303-0.038-0.615-0.085-0.918-0.142c-0.549-0.085-1.098-0.17-1.647-0.275c-0.436-0.076-0.871-0.152-1.307-0.237
		c-0.559-0.104-1.117-0.208-1.676-0.331c-0.227-0.038-0.454-0.085-0.682-0.142c-0.587-0.114-1.184-0.246-1.77-0.379
		c-0.568-0.123-1.117-0.256-1.676-0.398c-0.294-0.057-0.587-0.133-0.881-0.208c-0.871-0.208-1.733-0.436-2.594-0.672
		c-0.909-0.246-1.827-0.511-2.736-0.776c-1.723-0.511-3.428-1.07-5.122-1.657c-0.426-0.142-0.843-0.293-1.269-0.455
		c-0.53-0.189-1.06-0.379-1.581-0.578c-0.066-0.028-0.142-0.057-0.208-0.085c-0.767-0.284-1.534-0.587-2.291-0.899
		c-0.256-0.095-0.502-0.199-0.757-0.303c-0.578-0.237-1.165-0.483-1.733-0.738c-0.18-0.066-0.36-0.142-0.53-0.227
		c-0.691-0.294-1.382-0.606-2.064-0.918c-0.18-0.085-0.369-0.17-0.549-0.256c-0.672-0.313-1.335-0.625-1.988-0.956
		c-0.114-0.047-0.227-0.104-0.35-0.17c-0.644-0.313-1.288-0.634-1.931-0.966c-0.256-0.133-0.502-0.265-0.748-0.388
		c-0.407-0.218-0.814-0.436-1.221-0.653c-0.511-0.275-1.013-0.549-1.515-0.843c-0.644-0.35-1.278-0.72-1.922-1.098
		c-0.445-0.246-0.88-0.511-1.316-0.776c-0.398-0.237-0.795-0.483-1.193-0.729c-0.672-0.417-1.345-0.843-2.017-1.278
		c-0.398-0.256-0.795-0.521-1.193-0.786c-0.388-0.256-0.776-0.511-1.155-0.776c-1.401-0.956-2.784-1.941-4.138-2.964
		c-0.672-0.502-1.345-1.023-2.017-1.543c-0.578-0.454-1.155-0.918-1.723-1.382c-0.113-0.085-0.227-0.18-0.331-0.275
		c-0.455-0.369-0.9-0.738-1.335-1.117c-0.18-0.142-0.35-0.284-0.521-0.436c-0.738-0.634-1.477-1.278-2.197-1.932
		c-0.455-0.417-0.909-0.824-1.354-1.25c-0.246-0.218-0.492-0.445-0.729-0.682c-0.483-0.455-0.956-0.909-1.42-1.364
		c-0.066-0.066-0.133-0.133-0.199-0.199c-0.549-0.54-1.098-1.089-1.629-1.647c-0.085-0.076-0.17-0.161-0.246-0.246v-0.009
		c-2.395-2.481-4.677-5.056-6.817-7.736c-0.54-0.672-1.07-1.345-1.591-2.026c-0.53-0.682-1.042-1.373-1.543-2.064
		c-0.511-0.701-1.013-1.392-1.496-2.102c-0.909-1.307-1.79-2.632-2.642-3.977c-0.218-0.341-0.435-0.682-0.644-1.032
		c-0.757-1.221-1.486-2.462-2.196-3.721c-0.417-0.729-0.824-1.468-1.222-2.206c-0.009-0.029-0.028-0.066-0.057-0.104
		c-0.388-0.738-0.776-1.496-1.155-2.244c-0.426-0.852-0.852-1.714-1.259-2.585c-0.322-0.691-0.644-1.392-0.956-2.093
		c-0.35-0.786-0.691-1.581-1.023-2.377s-0.653-1.6-0.966-2.405c-0.634-1.61-1.222-3.248-1.771-4.895
		c-0.246-0.738-0.483-1.487-0.72-2.235c-0.038-0.123-0.076-0.237-0.114-0.36c-0.748-2.462-1.42-4.962-1.988-7.49
		c-0.596-2.566-1.089-5.16-1.477-7.792c-0.407-2.632-0.701-5.283-0.9-7.972c-0.066-0.899-0.123-1.799-0.17-2.698
		c-0.095-1.799-0.142-3.617-0.142-5.444c0-2.007,0.057-4.005,0.17-5.993c0.18-3.304,0.511-6.571,0.994-9.8
		c0.095-0.644,0.199-1.288,0.303-1.932c0.218-1.288,0.454-2.557,0.71-3.825c0.133-0.634,0.265-1.269,0.407-1.894
		c0.142-0.634,0.284-1.259,0.435-1.884c0.151-0.625,0.312-1.25,0.473-1.875c0.322-1.24,0.663-2.481,1.041-3.702
		c0.18-0.615,0.369-1.221,0.568-1.837c0.17-0.54,0.35-1.089,0.53-1.629c0.028-0.057,0.047-0.123,0.066-0.189
		c0.417-1.203,0.843-2.405,1.297-3.598c0.455-1.193,0.928-2.367,1.42-3.541c0.454-1.07,0.918-2.14,1.411-3.2
		c0.606-1.316,1.231-2.623,1.894-3.91c0.246-0.492,0.502-0.985,0.767-1.477c0.294-0.559,0.596-1.117,0.899-1.666
		c1.212-2.206,2.509-4.374,3.882-6.495v-0.01c0.322-0.492,0.644-0.985,0.966-1.468c0.322-0.483,0.663-0.975,0.994-1.449
		c0.331-0.483,0.663-0.956,0.994-1.43c0.009-0.01,0.019-0.019,0.019-0.028c0.341-0.473,0.691-0.947,1.032-1.411
		c0.202-0.274,0.413-0.54,0.618-0.812c0.148-0.2,0.295-0.399,0.443-0.599l-0.092,0.139c19.593-25.757,50.471-43.087,85.698-45.344
		c0.087-0.006,0.174-0.012,0.261-0.017c1.609-0.1,3.224-0.18,4.85-0.216c0.994-0.028,1.988-0.038,2.992-0.038
		c0.918,0,1.837,0.01,2.755,0.038C206.925,27.553,257.116,76.656,257.116,137.13z" fill="url(#SVGID_1_)"></path>
	<linearGradient id="SVGID_2_" gradientUnits="userSpaceOnUse" x1="260.8754" y1="232.6184" x2="45.0892" y2="178.4727">
		<stop offset="0" style="" stop-color="#D6E89E"></stop>
		<stop offset="1" style="" stop-color="#29BBB8"></stop>
	</linearGradient>
	<path style="" d="M203.431,230.923c-1.477,0.9-2.973,1.771-4.497,2.613
		c-5.227,2.878-10.699,5.388-16.399,7.461c-0.066,0.028-0.132,0.057-0.199,0.076c-0.038,0.019-0.076,0.028-0.114,0.038
		c-0.047,0.028-0.085,0.038-0.133,0.047c-12.053,4.365-25.053,6.846-38.65,7.082c-0.634,0.009-1.269,0.019-1.903,0.019H141.3
		c-1.004,0-1.998-0.009-2.992-0.038c-0.909-0.019-1.818-0.057-2.717-0.095c-0.388-0.019-0.767-0.038-1.146-0.066
		c-0.615-0.029-1.231-0.066-1.846-0.114c-0.275-0.019-0.559-0.038-0.833-0.066c-0.72-0.047-1.449-0.114-2.168-0.189
		c-0.17-0.01-0.341-0.019-0.502-0.047c-0.691-0.066-1.382-0.142-2.073-0.227c-0.388-0.038-0.776-0.085-1.165-0.142
		c-0.559-0.066-1.108-0.133-1.657-0.218c-0.492-0.066-0.985-0.142-1.477-0.227c-0.303-0.038-0.615-0.085-0.918-0.142
		c-0.549-0.085-1.098-0.17-1.647-0.275c-0.436-0.076-0.871-0.152-1.307-0.237c-0.559-0.104-1.117-0.208-1.676-0.331
		c-0.227-0.038-0.454-0.085-0.682-0.142c-0.587-0.114-1.184-0.246-1.77-0.379c-0.568-0.123-1.117-0.256-1.676-0.398
		c-0.294-0.057-0.587-0.133-0.881-0.208c-0.871-0.208-1.733-0.436-2.594-0.672c-0.909-0.246-1.827-0.511-2.736-0.776
		c-1.723-0.511-3.428-1.07-5.122-1.657c-0.426-0.142-0.843-0.293-1.269-0.455c-0.53-0.189-1.051-0.379-1.581-0.578
		c-0.066-0.028-0.142-0.057-0.208-0.085c-0.767-0.284-1.534-0.587-2.291-0.899c-0.256-0.095-0.502-0.199-0.757-0.303
		c-0.578-0.237-1.165-0.483-1.733-0.738c-0.18-0.066-0.36-0.142-0.53-0.227c-0.691-0.294-1.382-0.606-2.064-0.918
		c-0.18-0.085-0.369-0.17-0.549-0.256c-0.672-0.313-1.335-0.625-1.988-0.956c-0.114-0.047-0.227-0.104-0.35-0.17
		c-0.644-0.313-1.288-0.634-1.931-0.966c-0.256-0.133-0.502-0.265-0.748-0.388c-0.407-0.218-0.814-0.436-1.221-0.653
		c-0.511-0.275-1.013-0.549-1.515-0.843c-0.644-0.35-1.278-0.72-1.922-1.098c-0.445-0.246-0.88-0.511-1.316-0.776
		c-0.398-0.237-0.795-0.483-1.193-0.729c-0.672-0.417-1.345-0.843-2.017-1.278c-0.398-0.256-0.795-0.521-1.193-0.786
		c-0.388-0.256-0.776-0.511-1.155-0.776c-1.401-0.956-2.784-1.941-4.138-2.964c-0.672-0.502-1.345-1.023-2.017-1.543
		c-0.578-0.454-1.155-0.918-1.723-1.382c-0.113-0.085-0.227-0.18-0.331-0.275c-0.455-0.369-0.9-0.738-1.335-1.117
		c-0.18-0.142-0.35-0.284-0.521-0.436c-0.738-0.634-1.477-1.278-2.197-1.932c-0.455-0.417-0.909-0.824-1.354-1.25
		c-0.246-0.218-0.492-0.445-0.729-0.682c-0.483-0.445-0.956-0.909-1.42-1.364c-0.066-0.066-0.133-0.133-0.199-0.199
		c-0.549-0.54-1.098-1.089-1.629-1.647c-0.085-0.076-0.17-0.161-0.246-0.246v-0.009c-0.01-0.009-0.01-0.009-0.01-0.019
		c-0.028-0.076-0.047-0.142-0.066-0.218c-0.019-0.047-0.038-0.085-0.047-0.123c-0.189-0.597-0.379-1.174-0.549-1.761
		c-1.61-5.208-2.67-10.141-3.248-14.799c-0.597-4.734-0.71-9.184-0.426-13.369c0.133-2.149,0.379-4.223,0.729-6.23
		c0.331-2.007,0.757-3.948,1.269-5.813c0.275-1.004,0.568-1.979,0.89-2.935c0.161-0.483,0.322-0.956,0.483-1.43
		c0.17-0.464,0.341-0.928,0.521-1.392c0.18-0.464,0.36-0.918,0.549-1.363c0.18-0.455,0.379-0.9,0.568-1.335
		c0.398-0.881,0.805-1.742,1.231-2.585c0.208-0.426,0.426-0.843,0.644-1.25c1.098-2.064,2.282-3.996,3.532-5.813
		c0.199-0.303,0.407-0.597,0.625-0.881c0.189-0.284,0.388-0.568,0.597-0.833c0.17-0.237,0.341-0.464,0.511-0.682
		c0.672-0.909,1.373-1.771,2.083-2.604c0.17-0.208,0.35-0.417,0.53-0.625c0.17-0.208,0.35-0.407,0.53-0.606
		c0.36-0.407,0.71-0.795,1.07-1.183c1.505-1.619,3.039-3.096,4.554-4.441c0.275-0.246,0.549-0.492,0.824-0.72
		c1.089-0.947,2.168-1.818,3.229-2.613l0.009-0.009v0.407c0.01,1.42,0.066,2.831,0.17,4.223c0.076,1.004,0.17,1.988,0.293,2.983
		c0.057,0.426,0.114,0.862,0.17,1.288c0.047,0.35,0.104,0.701,0.17,1.042c0.047,0.331,0.104,0.653,0.17,0.975
		c0.057,0.369,0.123,0.729,0.208,1.098c0.095,0.473,0.189,0.937,0.303,1.411c0.104,0.473,0.218,0.947,0.341,1.42
		c0.114,0.445,0.227,0.89,0.35,1.325c0.009,0.047,0.019,0.095,0.038,0.142c0.256,0.918,0.54,1.827,0.833,2.727
		c0.312,0.918,0.634,1.827,0.985,2.727c0.202,0.525,0.421,1.042,0.637,1.559c0.201,0.48,0.409,0.957,0.622,1.431
		c0.063,0.14,0.127,0.279,0.191,0.418c0.242,0.525,0.489,1.049,0.746,1.566c0.021,0.043,0.044,0.086,0.066,0.13
		c0.584,1.169,1.203,2.318,1.857,3.447c0.577,0.985,1.184,1.96,1.808,2.916c0.218,0.322,0.426,0.644,0.644,0.956
		c0.218,0.312,0.436,0.625,0.663,0.937c1.108,1.553,2.291,3.058,3.541,4.497c0.417,0.492,0.852,0.975,1.307,1.458
		c0.341,0.379,0.701,0.757,1.06,1.127c0.256,0.256,0.511,0.521,0.767,0.776c0.549,0.549,1.098,1.079,1.657,1.591
		c0.568,0.521,1.146,1.032,1.723,1.534c0.587,0.511,1.174,1.004,1.78,1.477c0.303,0.237,0.606,0.483,0.909,0.71
		c0.303,0.237,0.615,0.473,0.928,0.701c1.108,0.824,2.244,1.619,3.418,2.367c0.407,0.265,0.814,0.521,1.221,0.767
		c3.513,2.159,7.272,3.996,11.23,5.473c0.435,0.17,0.88,0.331,1.335,0.483c0.89,0.313,1.79,0.606,2.699,0.881
		c0.095,0.028,0.189,0.057,0.293,0.085c0.464,0.142,0.928,0.275,1.401,0.398c1.051,0.293,2.121,0.559,3.21,0.795
		c0.521,0.114,1.042,0.227,1.572,0.322c1.042,0.208,2.102,0.388,3.172,0.54c0.464,0.066,0.937,0.133,1.411,0.189
		c0.71,0.095,1.42,0.17,2.13,0.237c0.824,0.076,1.657,0.133,2.5,0.18h0.085c0.341,0.019,0.691,0.038,1.042,0.047
		c0.379,0.019,0.757,0.028,1.136,0.038c0.511,0.01,1.023,0.019,1.534,0.019c1.96,0,3.901-0.085,5.814-0.256h0.085
		c0.038-0.009,0.085-0.009,0.123-0.009c0.104-0.01,0.208-0.019,0.313-0.038c5.16-0.483,10.131-1.553,14.865-3.143
		c1.136-0.379,2.263-0.795,3.371-1.24c0.653-0.256,1.307-0.53,1.95-0.805c1.155-0.511,2.292-1.042,3.409-1.61l0.01,0.01l9.27,13.511
		l1.411,2.045l2.055,2.992c0.36,0.502,0.729,1.004,1.098,1.496c0.975,1.297,1.969,2.566,2.982,3.797
		c0.521,0.653,1.06,1.288,1.6,1.922c0.786,0.918,1.581,1.818,2.386,2.689c1.212,1.326,2.443,2.594,3.683,3.825
		C198.223,226.52,200.799,228.812,203.431,230.923z" fill="url(#SVGID_2_)"></path>
	<path style="" d="M77.436,144.667c-0.132-0.985-0.227-1.979-0.293-2.983C77.218,142.688,77.313,143.672,77.436,144.667z" fill="none"></path>
	<path style="" d="M80.021,156.095c0.312,0.918,0.634,1.827,0.985,2.727C80.646,157.922,80.324,157.013,80.021,156.095z" fill="none"></path>
	<path style="" d="M82.265,161.812c0.063,0.14,0.127,0.279,0.191,0.418C82.392,162.09,82.328,161.951,82.265,161.812z" fill="none"></path>
	<path style="" d="M81.643,160.381c0.201,0.48,0.409,0.957,0.622,1.431C82.052,161.338,81.844,160.861,81.643,160.381z" fill="none"></path>
	<path style="" d="M83.202,163.795c0.021,0.043,0.044,0.086,0.066,0.13C83.246,163.882,83.223,163.839,83.202,163.795z" fill="none"></path>
	<path style="" d="M82.456,162.229c0.242,0.525,0.489,1.049,0.746,1.566C82.945,163.278,82.698,162.755,82.456,162.229z" fill="none"></path>
	<path style="" d="M83.268,163.925c0.584,1.169,1.203,2.318,1.857,3.447C84.463,166.245,83.851,165.093,83.268,163.925z" fill="none"></path>
	<path style="" d="M81.005,158.822c0.202,0.525,0.421,1.042,0.637,1.559c-0.032-0.075-0.066-0.149-0.097-0.224
		C81.356,159.712,81.185,159.267,81.005,158.822z" fill="none"></path>
	<path style="" d="M85.124,167.372c0.577,0.985,1.184,1.96,1.808,2.916C86.298,169.332,85.692,168.366,85.124,167.372z" fill="none"></path>
	<path style="" d="M88.239,172.182c1.108,1.553,2.291,3.058,3.541,4.497C90.521,175.23,89.338,173.734,88.239,172.182z" fill="none"></path>
	<path style="" d="M171.229,191.772l0.01,0.01c-1.117,0.568-2.263,1.098-3.418,1.6c-0.644,0.284-1.288,0.549-1.941,0.814
		c-1.108,0.435-2.244,0.852-3.38,1.231c-4.734,1.591-9.705,2.661-14.865,3.143c-0.104,0.019-0.208,0.028-0.313,0.038
		c-0.038,0-0.085,0-0.123,0.009h-0.085l-10.008-14.581c0.019-0.019,0.047-0.038,0.066-0.047l-0.095-0.132
		c0.028-0.019,0.057-0.047,0.085-0.066l-0.028-0.038c4.772-3.768,10.292-6.457,16.314-7.944l0.047,0.076h0.01
		c1.988-0.483,4.015-0.843,6.098-1.06l0.038,0.047l0.085,0.123L171.229,191.772z" fill="none"></path>
	<path style="" d="M205.647,137.13c0,10.614-2.784,20.575-7.679,29.276h-0.009c4.848-8.673,7.613-18.577,7.613-29.144
		c0-33.016-27.392-60.209-61.44-61.677c0.028,0.009,0.047,0.028,0.066,0.038c-0.852-0.028-1.723-0.047-2.585-0.047
		c-35.686,0-64.299,27.742-64.337,61.658c-0.104,0.076-0.199,0.152-0.303,0.227c0.01,1.42,0.066,2.831,0.17,4.223
		c-0.114-1.392-0.17-2.793-0.18-4.213v-0.407c0-1.06,0.028-2.121,0.095-3.172c0.028-0.521,0.066-1.042,0.104-1.562
		c0.246-3.096,0.729-6.135,1.439-9.099c0.133-0.511,0.265-1.032,0.398-1.543c0.265-0.985,0.549-1.96,0.871-2.926
		c0.152-0.473,0.312-0.956,0.483-1.439c0.17-0.473,0.341-0.947,0.521-1.42c0.36-0.937,0.748-1.875,1.146-2.803
		c0.398-0.899,0.824-1.79,1.259-2.67c0.237-0.464,0.473-0.928,0.72-1.392c0.701-1.326,1.468-2.632,2.272-3.901
		c0.53-0.843,1.089-1.676,1.666-2.5c0.578-0.824,1.174-1.629,1.789-2.424c3.418-4.393,7.433-8.342,11.94-11.731
		c0.758-0.568,1.534-1.117,2.32-1.657c0.009-0.009,0.019-0.019,0.019-0.019c0.833-0.568,1.685-1.117,2.547-1.648
		c1.733-1.07,3.532-2.064,5.388-2.983c0.01-0.009,0.01-0.009,0.019-0.009c0.919-0.454,1.846-0.881,2.793-1.297
		c1.903-0.824,3.854-1.572,5.852-2.216c1.363-0.445,2.755-0.843,4.166-1.202c0.256-0.066,0.511-0.133,0.767-0.189
		c0.909-0.218,1.827-0.426,2.755-0.606c0.53-0.104,1.061-0.199,1.581-0.293c0.985-0.17,1.988-0.313,2.992-0.436
		c2.755-0.35,5.577-0.53,8.436-0.53c0.53,0,1.07,0.009,1.6,0.019h0.151c0.284,0.009,0.559,0.019,0.843,0.038c0,0,0.01-0.009,0.01,0
		C178.103,76.769,205.647,104.01,205.647,137.13z" fill="none"></path>
	<linearGradient id="SVGID_3_" gradientUnits="userSpaceOnUse" x1="340.0206" y1="145.26" x2="35.5557" y2="68.8627">
		<stop offset="0" style="" stop-color="#F98F5F"></stop>
		<stop offset="0.4643" style="" stop-color="#F6457D"></stop>
		<stop offset="1" style="" stop-color="#92278F"></stop>
	</linearGradient>
	<path style="" d="M257.041,137.262c0,18.596-4.763,36.112-13.17,51.508c-0.824,1.496-1.676,2.973-2.556,4.431
		c-0.038,0.047-0.066,0.104-0.095,0.151c-0.028,0.038-0.047,0.085-0.076,0.123c-13.738-15.415-28.935-24.078-43.251-26.947
		c0.019-0.038,0.047-0.085,0.066-0.123c4.848-8.673,7.613-18.577,7.613-29.144c0-33.016-27.392-60.209-61.44-61.677
		c-0.01,0-0.01,0-0.019,0c-0.066-0.047-0.142-0.085-0.218-0.133c0,0-0.009,0-0.009-0.009h-0.01
		c-0.038-0.028-0.085-0.057-0.133-0.085c-0.019-0.009-0.038-0.028-0.057-0.028c-0.151-0.095-0.312-0.189-0.492-0.284
		c-0.076-0.047-0.161-0.095-0.246-0.142c-0.095-0.057-0.199-0.114-0.293-0.17c-0.199-0.104-0.398-0.218-0.616-0.331
		c-0.208-0.123-0.426-0.237-0.663-0.35c-0.237-0.123-0.473-0.246-0.729-0.369c-0.246-0.132-0.511-0.265-0.786-0.388
		c-0.275-0.133-0.559-0.265-0.843-0.398c-0.587-0.275-1.203-0.549-1.875-0.833c-0.332-0.142-0.672-0.284-1.023-0.426
		c-0.701-0.293-1.439-0.578-2.225-0.862c-0.265-0.104-0.54-0.199-0.824-0.303c-0.521-0.189-1.07-0.379-1.629-0.559
		c-0.417-0.142-0.843-0.275-1.278-0.417c-0.256-0.076-0.511-0.161-0.776-0.237c-0.322-0.095-0.653-0.199-0.985-0.284
		c-0.464-0.142-0.937-0.275-1.42-0.398c-1.07-0.293-2.187-0.568-3.352-0.833c-0.407-0.095-0.824-0.189-1.24-0.275
		c-0.994-0.218-2.017-0.417-3.068-0.606c-1.742-0.303-3.579-0.578-5.491-0.805c-0.322-0.047-0.663-0.085-0.994-0.114
		c-0.956-0.104-1.941-0.199-2.935-0.284c-0.047,0-0.095,0-0.142-0.009c-1.307-0.104-2.642-0.18-4.015-0.237
		c-4.204-0.17-8.739-0.104-13.596,0.284c-0.729,0.057-1.468,0.123-2.216,0.199c-1.439,0.133-2.897,0.303-4.384,0.502
		c-0.549,0.066-1.108,0.142-1.666,0.227c-0.483,0.066-0.966,0.142-1.449,0.218c0-0.01-0.009,0-0.009,0h-0.01
		c-0.682,0.104-1.363,0.218-2.055,0.341c-0.597,0.104-1.184,0.208-1.78,0.322c-0.521,0.095-1.041,0.189-1.572,0.293
		c-0.123,0.028-0.256,0.047-0.379,0.076c-0.549,0.114-1.108,0.227-1.676,0.35c-1.875,0.398-3.778,0.833-5.719,1.326
		c-0.597,0.161-1.193,0.312-1.79,0.473c-0.644,0.17-1.288,0.35-1.932,0.53c-1.487,0.407-2.983,0.852-4.507,1.335
		c-0.644,0.199-1.288,0.398-1.941,0.615c-0.985,0.312-1.979,0.653-2.983,0.994c-0.672,0.237-1.354,0.473-2.045,0.72
		c-1.108,0.398-2.225,0.814-3.352,1.24c-0.729,0.275-1.467,0.559-2.206,0.862c-0.956,0.369-1.922,0.757-2.888,1.165
		c-0.644,0.265-1.297,0.54-1.95,0.814v0.01c-0.095,0.038-0.199,0.076-0.303,0.123c-0.085,0.038-0.18,0.076-0.265,0.114
		c-0.104,0.038-0.208,0.085-0.312,0.133v-0.01c0.322-0.492,0.644-0.985,0.966-1.468c0.322-0.483,0.663-0.975,0.994-1.449
		c0.691-1.004,1.401-1.998,2.13-2.973c0.161-0.227,0.322-0.436,0.492-0.653c0.114-0.152,0.227-0.303,0.35-0.455
		C60.052,55.456,76.877,42.589,96.439,34.72c0.587-0.237,1.165-0.464,1.761-0.691c0.218-0.085,0.445-0.17,0.672-0.256
		c0.568-0.218,1.146-0.426,1.714-0.634c12.64-4.535,26.341-7.016,40.638-7.016C205.239,26.123,257.041,75.832,257.041,137.262z" fill="url(#SVGID_3_)"></path>
	<path style="" d="M51.475,67.504c0.384-0.45,0.773-0.899,1.157-1.349" fill="none"></path>
	<path style="" d="M47.074,73.068c0.03-0.036,0.054-0.072,0.078-0.108c0.33-0.438,0.654-0.869,0.983-1.301" fill="none"></path>
	<linearGradient id="SVGID_4_" gradientUnits="userSpaceOnUse" x1="46.0135" y1="74.5759" x2="45.989" y2="74.5374">
		<stop offset="0" style="" stop-color="#92278F"></stop>
		<stop offset="1" style="" stop-color="#27AAE1"></stop>
	</linearGradient>
	<path style="" d="M46.03,74.506c-0.028,0.038-0.057,0.076-0.076,0.114l0.085-0.142
		C46.039,74.487,46.03,74.497,46.03,74.506z" fill="url(#SVGID_4_)"></path>
	<linearGradient id="SVGID_5_" gradientUnits="userSpaceOnUse" x1="113.4208" y1="166.8314" x2="72.9617" y2="103.1677">
		<stop offset="0" style="" stop-color="#92278F"></stop>
		<stop offset="1" style="" stop-color="#27AAE1"></stop>
	</linearGradient>
	<path style="" d="M144.197,75.624c-0.852-0.028-1.723-0.047-2.585-0.047
		c-35.686,0-64.299,27.742-64.337,61.658c-0.104,0.076-0.199,0.152-0.303,0.227c0,0.01-0.009,0.01-0.009,0.01
		c-8.408,6.448-18.378,17.28-22.658,33.063c-0.028,0.114-0.057,0.227-0.085,0.341c-3.011,11.286-3.115,25.091,2.31,41.623
		c0.019,0.076,0.047,0.151,0.076,0.227c0.009,0.047,0.028,0.095,0.047,0.142c-0.123-0.133-0.256-0.265-0.379-0.398
		c0-0.009,0-0.009-0.009-0.019c-7.707-8.039-14.174-17.166-19.136-27.117c-0.398-0.814-0.795-1.628-1.183-2.443
		c-0.388-0.824-0.767-1.647-1.127-2.481c-0.265-0.597-0.521-1.203-0.776-1.808c-5.312-12.763-8.238-26.701-8.238-41.291
		c0-21.455,6.316-41.481,17.261-58.457c0.095-0.142,0.18-0.284,0.274-0.417c0.549-0.843,1.108-1.676,1.685-2.5
		c0.303-0.445,0.606-0.88,0.928-1.316l-2.31,3.683v0.01l-0.265,0.417c14.316-6.154,27.24-9.752,38.678-11.599
		c0.227-0.038,0.445-0.066,0.663-0.104c32.599-5.094,53.165,3.958,60.228,7.878c0.085,0.047,0.17,0.095,0.246,0.142
		c0.009,0,0.028,0.01,0.047,0.019c0.066,0.038,0.133,0.076,0.199,0.114c0.085,0.047,0.171,0.095,0.246,0.152
		c0.019,0,0.038,0.019,0.057,0.028c0.047,0.028,0.095,0.057,0.142,0.085h0.009v0.009c0,0,0.01-0.009,0.01,0
		c0.076,0.047,0.161,0.085,0.227,0.133C144.159,75.595,144.178,75.614,144.197,75.624z" fill="url(#SVGID_5_)"></path>
	<defs>
		<filter id="Adobe_OpacityMaskFilter" filterUnits="userSpaceOnUse" x="25.725" y="26.003" width="231.622" height="222.257">
			<feFlood style="" result="back" flood-color="white" flood-opacity="1"></feFlood>
			<feBlend in="SourceGraphic" in2="back" mode="normal"></feBlend>
		</filter>
	</defs>
	<mask maskUnits="userSpaceOnUse" x="25.725" y="26.003" width="231.622" height="222.257" id="SVGID_6_">
		<g style="" filter="url(#Adobe_OpacityMaskFilter)">
			<defs>
				<filter id="Adobe_OpacityMaskFilter_1_" filterUnits="userSpaceOnUse" x="25.725" y="26.003" width="231.622" height="222.257">
					<feFlood style="" result="back" flood-color="white" flood-opacity="1"></feFlood>
					<feBlend in="SourceGraphic" in2="back" mode="normal"></feBlend>
				</filter>
			</defs>
			<mask maskUnits="userSpaceOnUse" x="25.725" y="26.003" width="231.622" height="222.257" id="SVGID_6_">
				<g style="" filter="url(#Adobe_OpacityMaskFilter_1_)">
				</g>
			</mask>
			<linearGradient id="SVGID_7_" gradientUnits="userSpaceOnUse" x1="104.2753" y1="228.8624" x2="190.6077" y2="16.2459">
				<stop offset="0" style="" stop-color="#FFFFFF"></stop>
				<stop offset="0.1151" style="" stop-color="#C8C8C8"></stop>
				<stop offset="0.2418" style="" stop-color="#949494"></stop>
				<stop offset="0.3706" style="" stop-color="#676767"></stop>
				<stop offset="0.4987" style="" stop-color="#424242"></stop>
				<stop offset="0.626" style="" stop-color="#252525"></stop>
				<stop offset="0.7524" style="" stop-color="#101010"></stop>
				<stop offset="0.8775" style="" stop-color="#040404"></stop>
				<stop offset="1" style="" stop-color="#000000"></stop>
			</linearGradient>
			<path style="" d="M257.346,137.131c0,20.528-5.809,39.725-15.9,56.218
				c-5.258-5.899-10.732-10.815-16.289-14.784c6.685-12.404,10.474-26.487,10.474-41.433c0-49.911-42.081-90.295-94.096-90.295
				c-52.021,0-94.102,40.384-94.102,90.295c0,49.917,42.081,90.295,94.102,90.295c16.997,0,32.932-4.329,46.679-11.889
				c4.784,5.869,9.994,11.013,15.444,15.39c-17.95,10.959-39.245,17.332-62.123,17.332c-64.018,0-115.811-49.701-115.811-111.129
				S77.518,26.003,141.535,26.003C205.547,26.003,257.346,75.703,257.346,137.131z" mask="url(#SVGID_6_)" fill="url(#SVGID_7_)"></path>
		</g>
	</mask>
	<linearGradient id="SVGID_8_" gradientUnits="userSpaceOnUse" x1="104.2753" y1="228.8624" x2="190.6077" y2="16.2459">
		<stop offset="0" style="" stop-color="#FFFFFF"></stop>
		<stop offset="0.091" style="" stop-color="#FDFFEA"></stop>
		<stop offset="0.2743" style="" stop-color="#FBFFC5"></stop>
		<stop offset="0.4585" style="" stop-color="#F9FFA9"></stop>
		<stop offset="0.6414" style="" stop-color="#F7FF94"></stop>
		<stop offset="0.8226" style="" stop-color="#F6FF88"></stop>
		<stop offset="1" style="" stop-color="#F6FF84"></stop>
	</linearGradient>
	<path style="" d="M257.346,137.131c0,20.528-5.809,39.725-15.9,56.218
		c-5.258-5.899-10.732-10.815-16.289-14.784c6.685-12.404,10.474-26.487,10.474-41.433c0-49.911-42.081-90.295-94.096-90.295
		c-52.021,0-94.102,40.384-94.102,90.295c0,49.917,42.081,90.295,94.102,90.295c16.997,0,32.932-4.329,46.679-11.889
		c4.784,5.869,9.994,11.013,15.444,15.39c-17.95,10.959-39.245,17.332-62.123,17.332c-64.018,0-115.811-49.701-115.811-111.129
		S77.518,26.003,141.535,26.003C205.547,26.003,257.346,75.703,257.346,137.131z" opacity="0.2" fill="url(#SVGID_8_)"></path>
	<linearGradient id="SVGID_9_" gradientUnits="userSpaceOnUse" x1="292.6814" y1="300.1017" x2="103.2564" y2="138.0382">
		<stop offset="0" style="" stop-color="#B846D3"></stop>
		<stop offset="1" style="" stop-color="#D98BF7"></stop>
	</linearGradient>
	<path style="" d="M251.445,248.364c-0.019,0.019-0.047,0.038-0.066,0.057
		c-7.508,5.908-16.408,8.787-25.867,8.957c-0.483,0.019-0.975,0.01-1.468,0c-13.663-0.142-28.396-5.851-41.746-16.21
		c-0.028-0.019-0.057-0.038-0.076-0.057c-5.975-4.639-11.665-10.207-16.863-16.617c-1.297-1.591-2.557-3.238-3.787-4.933
		l-3.456-5.037l-10.917-15.907l-10.027-14.629l-0.095-0.132c0.028-0.019,0.057-0.047,0.085-0.066
		c4.791-3.759,10.32-6.42,16.333-7.906h0.01c1.988-0.483,4.015-0.843,6.098-1.06c1.562-0.17,3.153-0.265,4.763-0.275
		c0.502-0.009,1.004-0.019,1.496,0c20.328,0.379,43.763,12.858,62.737,40.525L251.445,248.364z" fill="url(#SVGID_9_)"></path>
	<defs>
		<filter id="Adobe_OpacityMaskFilter_2_" filterUnits="userSpaceOnUse" x="137.535" y="174.535" width="114.367" height="82.856">
			<feFlood style="" result="back" flood-color="white" flood-opacity="1"></feFlood>
			<feBlend in="SourceGraphic" in2="back" mode="normal"></feBlend>
		</filter>
	</defs>
	<mask maskUnits="userSpaceOnUse" x="137.535" y="174.535" width="114.367" height="82.856" id="SVGID_10_">
		<g style="" filter="url(#Adobe_OpacityMaskFilter_2_)">
			<defs>
				
					<filter id="Adobe_OpacityMaskFilter_3_" filterUnits="userSpaceOnUse" x="137.535" y="174.535" width="114.367" height="82.856">
					<feFlood style="" result="back" flood-color="white" flood-opacity="1"></feFlood>
					<feBlend in="SourceGraphic" in2="back" mode="normal"></feBlend>
				</filter>
			</defs>
			<mask maskUnits="userSpaceOnUse" x="137.535" y="174.535" width="114.367" height="82.856" id="SVGID_10_">
				<g style="" filter="url(#Adobe_OpacityMaskFilter_3_)">
				</g>
			</mask>
			<linearGradient id="SVGID_11_" gradientUnits="userSpaceOnUse" x1="219.0364" y1="263.5333" x2="173.115" y2="173.9867">
				<stop offset="0" style="" stop-color="#FFFFFF"></stop>
				<stop offset="1" style="" stop-color="#000000"></stop>
			</linearGradient>
			<path style="" d="M229.055,215.071c-29.133-42.464-68.781-49.159-91.521-31.214
				l21.042,30.667l3.458,5.042c25.352,35.033,65.136,48.317,89.866,28.802L229.055,215.071z" mask="url(#SVGID_10_)" fill="url(#SVGID_11_)"></path>
		</g>
	</mask>
	<linearGradient id="SVGID_12_" gradientUnits="userSpaceOnUse" x1="219.0364" y1="263.5333" x2="173.115" y2="173.9867">
		<stop offset="0" style="" stop-color="#7546D3"></stop>
		<stop offset="1" style="" stop-color="#D98BF7"></stop>
	</linearGradient>
	<path style="" d="M229.055,215.071c-29.133-42.464-68.781-49.159-91.521-31.214l21.042,30.667l3.458,5.042
		c25.352,35.033,65.136,48.317,89.866,28.802L229.055,215.071z" fill="url(#SVGID_12_)"></path>
	<linearGradient id="SVGID_13_" gradientUnits="userSpaceOnUse" x1="151.6132" y1="182.2145" x2="220.1906" y2="248.6489">
		<stop offset="0" style="" stop-color="#B846D3"></stop>
		<stop offset="1" style="" stop-color="#D98BF7"></stop>
	</linearGradient>
	<path style="" d="M251.038,248.62c-11.144,8.54-25.252,10.548-39.71,6.997
		c-0.208-0.057-0.426-0.114-0.644-0.17c-9.544-2.452-19.23-7.319-28.272-14.316c-0.028-0.028-0.057-0.047-0.076-0.057
		c-5.975-4.64-11.665-10.197-16.873-16.598c-1.307-1.619-2.585-3.286-3.835-5.009l-3.465-5.047l-10.841-15.812l-10.074-14.685
		l-0.085-0.132l-0.028-0.038c4.772-3.768,10.292-6.457,16.314-7.944l0.047,0.076h0.01l0.066,0.104l0.038,0.057l12.261,18.141
		l0.009,0.01l7.461,11.031l3.532,5.217c1.941,2.727,3.967,5.321,6.06,7.783c4.99,5.87,10.387,10.993,16.001,15.31
		c0.028,0.019,0.066,0.047,0.095,0.066C215.882,246.508,234.762,252.104,251.038,248.62z" fill="url(#SVGID_13_)"></path>
	<defs>
		<filter id="Adobe_OpacityMaskFilter_4_" filterUnits="userSpaceOnUse" x="137.105" y="174.721" width="114.359" height="82.843">
			<feFlood style="" result="back" flood-color="white" flood-opacity="1"></feFlood>
			<feBlend in="SourceGraphic" in2="back" mode="normal"></feBlend>
		</filter>
	</defs>
	<mask maskUnits="userSpaceOnUse" x="137.105" y="174.721" width="114.359" height="82.843" id="SVGID_14_">
		<g style="" filter="url(#Adobe_OpacityMaskFilter_4_)">
			<defs>
				
					<filter id="Adobe_OpacityMaskFilter_5_" filterUnits="userSpaceOnUse" x="137.105" y="174.721" width="114.359" height="82.843">
					<feFlood style="" result="back" flood-color="white" flood-opacity="1"></feFlood>
					<feBlend in="SourceGraphic" in2="back" mode="normal"></feBlend>
				</filter>
			</defs>
			<mask maskUnits="userSpaceOnUse" x="137.105" y="174.721" width="114.359" height="82.843" id="SVGID_14_">
				<g style="" filter="url(#Adobe_OpacityMaskFilter_5_)">
				</g>
			</mask>
			<linearGradient id="SVGID_15_" gradientUnits="userSpaceOnUse" x1="137.1053" y1="216.1424" x2="251.4638" y2="216.1424">
				<stop offset="0" style="" stop-color="#FFFFFF"></stop>
				<stop offset="0.1151" style="" stop-color="#C8C8C8"></stop>
				<stop offset="0.2418" style="" stop-color="#949494"></stop>
				<stop offset="0.3706" style="" stop-color="#676767"></stop>
				<stop offset="0.4987" style="" stop-color="#424242"></stop>
				<stop offset="0.626" style="" stop-color="#252525"></stop>
				<stop offset="0.7524" style="" stop-color="#101010"></stop>
				<stop offset="0.8775" style="" stop-color="#040404"></stop>
				<stop offset="1" style="" stop-color="#000000"></stop>
			</linearGradient>
			<path style="" d="M251.464,248.544c-2.916,2.301-6.031,4.138-9.317,5.548
				c-0.417,0.18-0.833,0.35-1.25,0.502c-17.63,6.893-39.606,1.524-58.742-13.379c-0.028-0.019-0.047-0.028-0.066-0.057
				c-5.965-4.639-11.646-10.216-16.825-16.636c-1.25-1.543-2.471-3.143-3.664-4.782l-3.456-5.037l-11.03-16.087l-10.008-14.581
				c0.019-0.019,0.047-0.038,0.066-0.047c0.028-0.028,0.047-0.047,0.076-0.066c2.964-2.32,6.211-4.223,9.696-5.681
				c0.142-0.057,0.284-0.123,0.426-0.18c2.007-0.814,4.09-1.486,6.24-2.017c1.988-0.483,4.033-0.833,6.116-1.051
				c21.616-2.291,47.976,9.752,68.901,40.259l22.752,33.168L251.464,248.544z" mask="url(#SVGID_14_)" fill="url(#SVGID_15_)"></path>
		</g>
	</mask>
	<linearGradient id="SVGID_16_" gradientUnits="userSpaceOnUse" x1="137.1053" y1="216.1424" x2="251.4638" y2="216.1424">
		<stop offset="0" style="" stop-color="#FFFFFF"></stop>
		<stop offset="0.091" style="" stop-color="#FDFFEA"></stop>
		<stop offset="0.2743" style="" stop-color="#FBFFC5"></stop>
		<stop offset="0.4585" style="" stop-color="#F9FFA9"></stop>
		<stop offset="0.6414" style="" stop-color="#F7FF94"></stop>
		<stop offset="0.8226" style="" stop-color="#F6FF88"></stop>
		<stop offset="1" style="" stop-color="#F6FF84"></stop>
	</linearGradient>
	<path style="" d="M251.464,248.544c-2.916,2.301-6.031,4.138-9.317,5.548
		c-0.417,0.18-0.833,0.35-1.25,0.502c-17.63,6.893-39.606,1.524-58.742-13.379c-0.028-0.019-0.047-0.028-0.066-0.057
		c-5.965-4.639-11.646-10.216-16.825-16.636c-1.25-1.543-2.471-3.143-3.664-4.782l-3.456-5.037l-11.03-16.087l-10.008-14.581
		c0.019-0.019,0.047-0.038,0.066-0.047c0.028-0.028,0.047-0.047,0.076-0.066c2.964-2.32,6.211-4.223,9.696-5.681
		c0.142-0.057,0.284-0.123,0.426-0.18c2.007-0.814,4.09-1.486,6.24-2.017c1.988-0.483,4.033-0.833,6.116-1.051
		c21.616-2.291,47.976,9.752,68.901,40.259l22.752,33.168L251.464,248.544z" opacity="0.5" fill="url(#SVGID_16_)"></path>
</g>
</svg></g> <!----></g><g id="shape_CX1RTTPSeU" transform="translate(133.22473556702514,201.92310859568573) rotate(0,83.4147225942227,28.23258735231939) scale(0.9592545944370037,0.9592545944370037)" filter="" style="cursor: move; opacity: 1;"><g><svg xmlns="http://www.w3.org/2000/svg" version="1.1" xmlns:xlink="http://www.w3.org/1999/xlink" overflow="hidden" style="top:0; left: 0" width="166.8294451884454" height="56.465150390625" viewBox="0 0 166.8294451884454 56.465150390625" preserveAspectRatio="none" data-parent="shape_CX1RTTPSeU"><rect fill="rgba(0,0,0,0)" width="166.8294451884454" height="56.465150390625"></rect> <rect opacity="0"></rect><g transform="translate(0 0)" data-width="142.18110000000001"><path fill="rgb(7, 160, 74)" d="M32.68-33.32L32.68-33.32L32.68-33.32Q35.04-34.11 36.89-33.00L36.89-33.00L36.89-33.00Q37.40-32.63 37.67-32.12L37.67-32.12L37.67-32.12Q38.46-30.18 35.36-29.71L35.36-29.71L35.36-29.71Q32.95-29.20 28.88-27.91L28.88-27.91L28.88-27.91Q27.35-28.00 26.20-29.57L26.20-29.57L26.20-29.57Q24.81-31.15 27.12-31.61L27.12-31.61L27.12-31.61Q29.90-32.54 32.68-33.32ZM12.54-32.21L12.54-32.21L12.54-32.21Q13.61-33.05 14.86-31.06L14.86-31.06L14.86-31.06Q15.46-29.44 14.39-27.82L14.39-27.82L14.39-27.82Q13.51-26.52 13.51-26.24L13.51-26.24L13.51-26.24Q13.70-25.87 14.12-25.87L14.12-25.87L14.12-25.87Q14.58-25.92 15.50-26.29L15.50-26.29L15.50-26.29Q17.82-27.03 19.21-27.17L19.21-27.17L19.21-27.17Q20.50-27.68 21.06-25.96L21.06-25.96L21.06-25.96Q21.43-24.72 19.76-23.97L19.76-23.97L17.91-23.33L17.91-23.33Q16.80-23.23 16.25-22.59L16.25-22.59L16.25-22.59Q16.43-21.61 16.38-20.64L16.38-20.64L16.29-19.90L16.29-19.90Q16.29-18.79 16.48-18.61L16.48-18.61L16.48-18.61Q17.22-18.42 18.14-18.98L18.14-18.98L18.14-18.98Q18.98-19.72 19.99-18.98L19.99-18.98L19.99-18.98Q21.52-18.05 20.69-16.71L20.69-16.71L20.69-16.71Q19.72-15.18 16.89-14.21L16.89-14.21L16.89-14.21Q14.39-13.19 14.90-10.88L14.90-10.88L14.90-10.88Q15.09-10.69 16.20-10.60L16.20-10.60L16.20-10.60Q18.37-10.37 19.44-7.50L19.44-7.50L19.44-7.50Q19.95-6.48 19.58-5.46L19.58-5.46L19.58-5.46Q18.79-3.61 17.26-4.91L17.26-4.91L17.26-4.91Q16.62-5.60 16.38-6.29L16.38-6.29L16.38-6.29Q14.53-9.16 13.61-7.22L13.61-7.22L13.61-7.22Q12.45-3.10 7.41 0.69L7.41 0.69L7.41 0.69Q6.11 1.57 6.66-0.09L6.66-0.09L6.66-0.09Q7.68-2.68 9.63-5.65L9.63-5.65L9.63-5.65Q10.23-6.48 10.51-7.50L10.51-7.50L11.11-9.35L11.11-9.35Q11.52-10.69 11.43-11.43L11.43-11.43L11.43-11.43Q10.74-12.08 9.35-11.20L9.35-11.20L9.35-11.20Q7.68-10.46 6.25-12.45L6.25-12.45L6.25-12.45Q4.81-14.67 7.50-15.41L7.50-15.41L7.50-15.41Q9.35-15.74 11.20-16.25L11.20-16.25L11.20-16.25Q12.40-16.66 12.54-17.77L12.54-17.77L12.54-17.77Q12.68-19.62 12.96-21.48L12.96-21.48L12.96-21.48Q13.19-22.31 12.17-22.54L12.17-22.54L12.17-22.54Q10.92-23.42 9.67-21.85L9.67-21.85L9.67-21.85Q8.52-20.36 7.36-20.13L7.36-20.13L7.36-20.13Q7.08-20.18 7.27-21.57L7.27-21.57L7.27-21.57Q8.52-27.08 12.54-32.21ZM36.75-25.69L36.75-25.69L36.75-25.69Q37.86-26.20 38.97-25.36L38.97-25.36L38.97-25.36Q40.45-24.16 40.13-22.03L40.13-22.03L40.13-22.03Q39.90-20.41 38.79-18.74L38.79-18.74L38.79-18.74Q38.65-18.14 38.83-17.40L38.83-17.40L38.83-17.40Q39.02-15.88 37.40-14.72L37.40-14.72L37.40-14.72Q35.36-13.38 29.99-12.40L29.99-12.40L29.99-12.40Q28.79-12.26 28.14-11.71L28.14-11.71L28.14-11.71Q27.31-9.81 25.59-11.39L25.59-11.39L25.59-11.39Q22.77-15.83 22.03-20.60L22.03-20.60L22.03-20.60Q21.80-21.94 22.86-23.97L22.86-23.97L22.86-23.97Q23.74-25.09 25.22-24.48L25.22-24.48L25.22-24.48Q26.15-24.16 28.00-24.76L28.00-24.76L28.00-24.76Q31.33-25.59 34.53-25.50L34.53-25.50L34.53-25.50Q35.92-25.32 36.75-25.69ZM34.67-22.68L34.67-22.68L34.67-22.68Q31.52-21.24 27.45-20.69L27.45-20.69L27.45-20.69Q26.38-19.81 27.17-16.89L27.17-16.89L27.17-16.89Q27.54-15.50 28.51-15.60L28.51-15.60L28.51-15.60Q30.36-16.06 32.21-16.38L32.21-16.38L32.21-16.38Q35.18-16.52 35.73-19.44L35.73-19.44L36.05-21.29L36.05-21.29Q36.47-23.00 34.67-22.68ZM36.10-10.65L36.10-10.65L36.10-10.65Q36.38-12.73 38.32-11.99L38.32-11.99L38.32-11.99Q40.13-10.78 39.94-9.40L39.94-9.40L39.94-9.40Q39.43-7.08 35.78-3.98L35.78-3.98L35.78-3.98Q34.57-2.78 34.62-2.45L34.62-2.45L34.62-2.45Q34.90-2.18 36.38-2.22L36.38-2.22L36.38-2.22Q38.04-2.31 39.85-2.59L39.85-2.59L39.85-2.59Q42.90-2.59 43.55 0.23L43.55 0.23L43.55 0.23Q43.69 0.93 43.14 1.43L43.14 1.43L43.14 1.43Q42.63 2.04 41.56 2.13L41.56 2.13L41.56 2.13Q34.99 1.06 21.06 3.15L21.06 3.15L21.06 3.15Q19.25 2.73 19.30 0.69L19.30 0.69L19.30 0.69Q20.55-1.11 24.39-1.25L24.39-1.25L24.39-1.25Q27.17-1.62 29.95-1.81L29.95-1.81L29.95-1.81Q30.78-1.71 31.61-3.05L31.61-3.05L31.61-3.05Q32.81-5.55 33.83-6.76L33.83-6.76L33.83-6.76Q35.78-9.16 36.10-10.65ZM24.25-8.15L24.25-8.15L24.25-8.15Q25.59-10.97 28.05-8.19L28.05-8.19L28.05-8.19Q29.95-5.00 26.15-2.92L26.15-2.92L26.15-2.92Q25.92-3.05 25.55-3.52L25.55-3.52L24.48-5.37L24.48-5.37Q23.60-6.94 24.25-8.15Z" transform="translate(0 37.72057177734375)"></path><path fill="rgb(7, 160, 74)" d="M26.33-34.20L26.33-34.20L26.33-34.20Q28.23-34.71 30.13-33.88L30.13-33.88L30.13-33.88Q30.59-33.69 31.01-33.18L31.01-33.18L31.01-33.18Q32.44-31.61 30.73-30.59L30.73-30.59L30.73-30.59Q29.25-29.90 27.03-29.57L27.03-29.57L27.03-29.57Q26.06-29.11 26.01-28.28L26.01-28.28L25.92-22.08L25.92-22.08Q26.06-20.97 26.29-20.78L26.29-20.78L26.29-20.78Q26.98-20.97 27.91-22.63L27.91-22.63L27.91-22.63Q30.87-26.66 33.88-27.49L33.88-27.49L33.88-27.49Q36.19-27.45 36.66-24.99L36.66-24.99L36.66-24.99Q36.70-23.88 35.13-22.91L35.13-22.91L35.13-22.91Q30.13-20.32 28.09-19.02L28.09-19.02L28.09-19.02Q26.98-17.91 27.21-17.73L27.21-17.73L27.21-17.73Q27.49-17.54 28.05-17.54L28.05-17.54L35.64-18.00L35.64-18.00Q37.86-18.28 39.34-17.96L39.34-17.96L39.34-17.96Q40.78-17.96 41.84-16.11L41.84-16.11L41.84-16.11Q42.86-13.05 40.03-12.54L40.03-12.54L40.03-12.54Q36.19-12.87 27.95-12.64L27.95-12.64L27.95-12.64Q26.01-12.59 26.33-10.46L26.33-10.46L26.33-10.46Q26.43-4.26 25.96 1.76L25.96 1.76L25.96 1.76Q26.06 3.61 23.93 5.46L23.93 5.46L23.93 5.46Q22.68 6.99 22.31 5.42L22.31 5.42L22.31 5.42Q21.29-0.51 21.38-11.20L21.38-11.20L21.38-11.20Q21.06-12.03 20.04-11.76L20.04-11.76L20.04-11.76Q15.32-11.06 12.64-10.18L12.64-10.18L12.64-10.18Q8.56-8.47 6.53-11.94L6.53-11.94L6.53-11.94Q5.74-13.28 7.41-14.63L7.41-14.63L7.41-14.63Q9.63-15.88 12.26-15.97L12.26-15.97L12.26-15.97Q13.38-16.20 13.61-16.43L13.61-16.43L13.61-16.43Q13.84-17.03 13.19-17.63L13.19-17.63L13.19-17.63Q10.92-20.46 11.25-23.47L11.25-23.47L11.25-23.47Q12.45-25.32 14.39-23.97L14.39-23.97L14.39-23.97Q15.27-23.14 15.69-22.22L15.69-22.22L18.51-16.89L18.51-16.89Q21.85-15.88 21.52-19.44L21.52-19.44L21.52-19.44Q21.48-21.43 21.57-23.60L21.57-23.60L21.57-23.60Q21.66-25.46 21.57-27.35L21.57-27.35L21.57-27.35Q21.24-27.95 19.99-27.58L19.99-27.58L19.99-27.58Q18.28-27.03 16.43-29.25L16.43-29.25L16.43-29.25Q14.90-30.87 16.94-31.52L16.94-31.52L16.94-31.52Q20.78-32.86 26.33-34.20Z" transform="translate(47.3937 37.72057177734375)"></path><path fill="rgb(7, 160, 74)" d="M28.19-32.40L28.19-32.40L28.19-32.40Q28.46-33.51 29.90-33.28L29.90-33.28L29.90-33.28Q33.74-32.63 32.44-28.97L32.44-28.97L32.40-28.42L32.40-28.42Q32.35-27.26 32.58-27.03L32.58-27.03L32.58-27.03Q33.00-26.52 34.34-26.52L34.34-26.52L34.34-26.52Q35.92-25.87 36.75-26.89L36.75-26.89L36.75-26.89Q38.09-28.19 39.25-26.33L39.25-26.33L39.25-26.33Q40.96-22.22 38.60-17.54L38.60-17.54L38.60-17.54Q38.23-17.08 38.46-16.43L38.46-16.43L38.46-16.43Q38.69-16.20 40.08-16.20L40.08-16.20L40.08-16.20Q42.58-16.66 43.97-13.38L43.97-13.38L43.97-13.38Q44.57-11.02 41.84-11.62L41.84-11.62L41.84-11.62Q34.80-11.66 29.11-10.23L29.11-10.23L29.11-10.23Q28.05-9.95 27.54-8.89L27.54-8.89L27.54-8.89Q25.32-3.33 20.18 3.15L20.18 3.15L20.18 3.15Q18.93 4.49 19.25 3.15L19.25 3.15L22.72-6.11L22.72-6.11Q23.33-7.31 23.00-8.10L23.00-8.10L23.00-8.10Q22.82-8.28 21.71-8.38L21.71-8.38L21.71-8.38Q20.64-8.33 19.44-9.40L19.44-9.40L19.44-9.40Q17.68-11.57 18.70-12.40L18.70-12.40L18.70-12.40Q20.13-13.56 24.02-13.93L24.02-13.93L24.02-13.93Q25.09-14.02 25.59-15.23L25.59-15.23L26.06-17.08L26.06-17.08Q26.43-18.42 26.43-19.16L26.43-19.16L26.43-19.16Q25.96-19.99 24.95-20.04L24.95-20.04L24.95-20.04Q22.12-21.29 21.75-23.47L21.75-23.47L21.75-23.47Q21.61-24.85 22.96-25.46L22.96-25.46L22.96-25.46Q24.44-26.10 26.66-26.38L26.66-26.38L26.66-26.38Q28.14-26.61 27.95-28.70L27.95-28.70L27.95-28.70Q28.00-30.55 28.19-32.40ZM14.53-32.86L14.53-32.86L14.53-32.86Q16.15-32.68 16.89-30.96L16.89-30.96L16.89-30.96Q17.73-29.53 17.12-27.54L17.12-27.54L16.85-26.33L16.85-26.33Q16.80-25.22 17.03-25.04L17.03-25.04L17.03-25.04Q18.61-25.87 19.62-23.74L19.62-23.74L19.62-23.74Q19.62-21.01 17.22-19.21L17.22-19.21L17.22-19.21Q15.60-18.14 15.64-16.48L15.64-16.48L15.64-16.48Q15.32-7.59 15.74-2.96L15.74-2.96L15.74-2.96Q16.20-0.05 16.11 1.99L16.11 1.99L16.11 1.99Q16.01 4.26 14.67 5.23L14.67 5.23L14.67 5.23Q13.75 5.74 13.05 4.95L13.05 4.95L13.05 4.95Q12.17 3.66 11.71 1.25L11.71 1.25L11.71 1.25Q11.57-6.90 12.03-16.48L12.03-16.48L12.03-16.48Q11.99-16.94 11.20-17.77L11.20-17.77L11.20-17.77Q8.15-19.72 11.25-21.43L11.25-21.43L11.25-21.43Q12.17-22.03 12.17-22.40L12.17-22.40L12.17-22.40Q12.26-24.11 12.17-25.87L12.17-25.87L12.13-29.39L12.13-29.39Q12.22-32.26 14.53-32.86ZM5.65-22.59L5.65-22.59L5.65-22.59Q6.16-24.34 7.27-24.07L7.27-24.07L7.27-24.07Q7.78-23.79 7.91-22.96L7.91-22.96L7.91-22.96Q7.78-18.70 7.78-14.30L7.78-14.30L7.78-14.30Q7.78-12.91 7.59-12.45L7.59-12.45L7.59-12.45Q7.22-11.52 6.71-11.66L6.71-11.66L6.71-11.66Q6.11-12.13 5.14-13.65L5.14-13.65L5.14-13.65Q3.24-15.83 4.91-20.73L4.91-20.73L4.91-20.73Q5.18-21.66 5.65-22.59ZM34.39-23.60L34.39-23.60L34.39-23.60Q33.46-23.28 32.54-22.82L32.54-22.82L32.54-22.82Q31.19-21.98 31.01-20.23L31.01-20.23L30.08-16.52L30.08-16.52Q29.71-14.63 31.75-15.13L31.75-15.13L31.75-15.13Q34.11-14.90 34.62-17.26L34.62-17.26L34.62-17.26Q35.18-19.11 35.87-20.97L35.87-20.97L35.87-20.97Q36.01-21.85 35.96-22.54L35.96-22.54L35.96-22.54Q36.01-24.48 34.39-23.60ZM32.26-7.54L32.26-7.54L32.26-7.54Q34.39-8.15 37.63-5.55L37.63-5.55L37.63-5.55Q40.40-2.36 40.22 0.46L40.22 0.46L40.22 0.46Q40.31 1.53 39.11 2.78L39.11 2.78L39.11 2.78Q37.49 4.21 35.92 2.55L35.92 2.55L35.92 2.55Q35.18 1.62 34.94 0.69L34.94 0.69L34.94 0.69Q34.39-1.53 31.80-4.86L31.80-4.86L31.80-4.86Q31.19-5.97 31.56-6.85L31.56-6.85L31.56-6.85Q31.89-7.41 32.26-7.54Z" transform="translate(94.7874 37.72057177734375)"></path></g></svg></g> <!----></g><g id="shape_CaKPR4sKzQ" transform="translate(144.75994603979908,249.41977447145987) rotate(0,82.09737937244371,6.951041273804457) scale(0.9592545944370037,0.9592545944370037)" filter="" style="cursor: move; opacity: 1;"><g><svg xmlns="http://www.w3.org/2000/svg" version="1.1" xmlns:xlink="http://www.w3.org/1999/xlink" overflow="hidden" style="top:0; left: 0" width="164.19475874488742" height="13.902082547608915" viewBox="0 0 366.38298 31.021005" preserveAspectRatio="none" data-parent="shape_CaKPR4sKzQ"><rect fill="rgba(0,0,0,0)" width="366.38298" height="31.021005"></rect> <rect opacity="0"></rect><g transform="translate(0 0)" data-width="311.38298"><path fill="rgb(7, 160, 74)" d="M0.42 0L0.42 0L0.42-0.49L0.42-0.49Q1.90-0.55 2.30-1.00L2.30-1.00L2.30-1.00Q2.70-1.45 2.70-2.80L2.70-2.80L2.70-14.36L2.70-14.36Q2.70-15.78 2.31-16.17L2.31-16.17L2.31-16.17Q1.92-16.56 0.42-16.67L0.42-16.67L0.42-17.18L7.42-17.18L7.42-17.18Q12.10-17.16 14.94-15.02L14.94-15.02L14.94-15.02Q17.78-12.88 17.78-8.51L17.78-8.51L17.78-8.51Q17.78-7.89 17.68-7.20L17.68-7.20L17.68-7.20Q17.57-6.52 17.37-5.79L17.37-5.79L17.37-5.79Q16.67-3.61 14.49-1.80L14.49-1.80L14.49-1.80Q12.30 0 7.79 0L7.79 0L0.42 0ZM5.35-15.19L5.35-15.21L5.35-2.02L5.35-2.02Q5.35-1.35 5.66-1.14L5.66-1.14L5.66-1.14Q5.97-0.93 6.91-0.93L6.91-0.93L6.91-0.93Q7.42-0.93 8.49-1.01L8.49-1.01L8.49-1.01Q9.55-1.09 10.72-1.51L10.72-1.51L10.72-1.51Q12.30-2.10 13.63-3.67L13.63-3.67L13.63-3.67Q14.95-5.24 14.95-8.49L14.95-8.49L14.95-8.49Q14.95-10.12 14.42-11.66L14.42-11.66L14.42-11.66Q13.89-13.19 12.54-14.38L12.54-14.38L12.54-14.38Q11.60-15.21 10.32-15.71L10.32-15.71L10.32-15.71Q9.03-16.20 6.57-16.20L6.57-16.20L6.57-16.20Q5.66-16.20 5.50-15.89L5.50-15.89L5.50-15.89Q5.35-15.58 5.35-15.19L5.35-15.19Z" transform="translate(0 20.871036)" stroke="rgb(7, 160, 74)" stroke-width="2" stroke-linecap="round" stroke-linejoin="round"></path><path fill="rgb(7, 160, 74)" d="M18.30-17.18L18.30-17.18L18.30-16.69L18.30-16.69Q16.80-16.51 16.33-15.95L16.33-15.95L16.33-15.95Q15.86-15.39 15.86-13.34L15.86-13.34L15.86-6.59L15.86-6.59Q15.86-6.00 15.82-5.19L15.82-5.19L15.82-5.19Q15.78-4.39 15.52-3.56L15.52-3.56L15.52-3.56Q15.11-2.08 13.72-0.86L13.72-0.86L13.72-0.86Q12.33 0.36 9.14 0.36L9.14 0.36L9.14 0.36Q6.28 0.36 4.95-0.73L4.95-0.73L4.95-0.73Q3.61-1.82 3.14-3.14L3.14-3.14L3.14-3.14Q2.80-4.08 2.75-4.92L2.75-4.92L2.75-4.92Q2.70-5.76 2.70-6.23L2.70-6.23L2.70-14.36L2.70-14.36Q2.70-15.78 2.27-16.17L2.27-16.17L2.27-16.17Q1.84-16.56 0.36-16.67L0.36-16.67L0.36-17.18L7.71-17.18L7.71-16.69L7.71-16.69Q6.18-16.56 5.76-16.13L5.76-16.13L5.76-16.13Q5.35-15.71 5.35-14.33L5.35-14.33L5.35-6.05L5.35-6.05Q5.35-5.58 5.37-5.00L5.37-5.00L5.37-5.00Q5.40-4.41 5.53-3.79L5.53-3.79L5.53-3.79Q5.81-2.65 6.74-1.70L6.74-1.70L6.74-1.70Q7.66-0.75 9.86-0.75L9.86-0.75L9.86-0.75Q11.40-0.75 12.47-1.32L12.47-1.32L12.47-1.32Q13.55-1.90 14.12-2.80L14.12-2.80L14.12-2.80Q14.38-3.24 14.55-4.00L14.55-4.00L14.55-4.00Q14.72-4.75 14.72-6.33L14.72-6.33L14.72-13.37L14.72-13.37Q14.72-15.42 14.19-16.00L14.19-16.00L14.19-16.00Q13.65-16.59 12.28-16.67L12.28-16.67L12.28-17.18L18.30-17.18Z" transform="translate(25.742397999999998 20.871036)" stroke="rgb(7, 160, 74)" stroke-width="2" stroke-linecap="round" stroke-linejoin="round"></path><path fill="rgb(7, 160, 74)" d="M18.33-0.47L18.33-0.49L18.33 0L11.71 0L11.71-0.49L11.71-0.49Q12.43-0.47 12.98-0.60L12.98-0.60L12.98-0.60Q13.52-0.73 13.52-1.45L13.52-1.45L13.52-1.45Q13.52-1.61 13.47-1.82L13.47-1.82L13.47-1.82Q13.42-2.02 13.34-2.23L13.34-2.23L13.34-2.23Q13.32-2.31 13.29-2.40L13.29-2.40L13.29-2.40Q13.27-2.49 13.24-2.57L13.24-2.57L13.24-2.57Q13.19-2.73 13.14-2.86L13.14-2.86L13.14-2.86Q13.08-2.99 13.03-3.09L13.03-3.09L11.97-5.61L5.17-5.61L3.97-2.57L3.97-2.57Q3.95-2.49 3.92-2.43L3.92-2.43L3.92-2.43Q3.89-2.36 3.89-2.28L3.89-2.28L3.89-2.28Q3.82-2.10 3.79-1.91L3.79-1.91L3.79-1.91Q3.76-1.71 3.76-1.56L3.76-1.56L3.76-1.56Q3.76-1.04 4.08-0.80L4.08-0.80L4.08-0.80Q4.39-0.57 4.78-0.52L4.78-0.52L4.78-0.52Q4.98-0.47 5.18-0.47L5.18-0.47L5.18-0.47Q5.37-0.47 5.53-0.47L5.53-0.47L5.53 0L0.39 0L0.39-0.49L0.39-0.49Q0.70-0.49 1.04-0.58L1.04-0.58L1.04-0.58Q1.38-0.67 1.71-1.04L1.71-1.04L1.71-1.04Q1.90-1.25 2.09-1.57L2.09-1.57L2.09-1.57Q2.28-1.90 2.49-2.28L2.49-2.28L2.49-2.28Q2.62-2.52 2.73-2.75L2.73-2.75L2.73-2.75Q2.83-2.99 2.93-3.22L2.93-3.22L2.93-3.22Q3.14-3.63 3.31-4.02L3.31-4.02L3.31-4.02Q3.48-4.41 3.61-4.72L3.61-4.72L9.01-17.50L9.53-17.50L15.99-2.75L15.99-2.75Q16.22-2.18 16.42-1.82L16.42-1.82L16.42-1.82Q16.61-1.45 16.80-1.19L16.80-1.19L16.80-1.19Q17.11-0.78 17.44-0.64L17.44-0.64L17.44-0.64Q17.78-0.49 18.33-0.47L18.33-0.47ZM5.61-6.67L5.61-6.67L11.60-6.67L8.59-13.81L5.61-6.67Z" transform="translate(51.484795999999996 20.871036)" stroke="rgb(7, 160, 74)" stroke-width="2" stroke-linecap="round" stroke-linejoin="round"></path><path fill="rgb(7, 160, 74)" d="M18.35-17.18L18.35-17.18L18.35-16.69L18.35-16.69Q18.33-16.67 18.29-16.67L18.29-16.67L18.29-16.67Q18.25-16.67 18.22-16.64L18.22-16.64L18.22-16.64Q17.06-16.51 16.47-16.03L16.47-16.03L16.47-16.03Q15.89-15.55 15.89-13.34L15.89-13.34L15.89 0.29L15.45 0.29L4.02-13.94L3.97-13.94L3.97-3.82L3.97-3.82Q3.97-1.79 4.48-1.16L4.48-1.16L4.48-1.16Q4.98-0.52 6.41-0.47L6.41-0.47L6.41 0L0.31 0L0.31-0.49L0.31-0.49Q1.79-0.57 2.31-1.13L2.31-1.13L2.31-1.13Q2.83-1.69 2.83-3.79L2.83-3.79L2.83-15.26L2.83-15.26Q2.41-15.73 2.12-16.02L2.12-16.02L2.12-16.02Q1.82-16.30 1.53-16.46L1.53-16.46L1.53-16.46Q1.27-16.59 0.99-16.63L0.99-16.63L0.99-16.63Q0.70-16.67 0.31-16.67L0.31-16.67L0.31-17.18L4.75-17.18L14.69-4.70L14.74-4.70L14.74-13.37L14.74-13.37Q14.74-15.58 14.16-16.07L14.16-16.07L14.16-16.07Q13.58-16.56 12.25-16.67L12.25-16.67L12.25-17.18L18.35-17.18Z" transform="translate(77.227194 20.871036)" stroke="rgb(7, 160, 74)" stroke-width="2" stroke-linecap="round" stroke-linejoin="round"></path><path fill="rgb(7, 160, 74)" d="" transform="translate(102.96959199999999 20.871036)" stroke="rgb(7, 160, 74)" stroke-width="2" stroke-linecap="round" stroke-linejoin="round"></path><path fill="rgb(7, 160, 74)" d="M0.42-16.67L0.42-16.69L0.42-17.18L7.27-17.18L7.27-17.18Q9.97-17.16 12.02-16.06L12.02-16.06L12.02-16.06Q14.07-14.95 14.07-12.49L14.07-12.49L14.07-12.49Q14.07-11.55 13.80-10.88L13.80-10.88L13.80-10.88Q13.52-10.20 13.19-9.76L13.19-9.76L13.19-9.76Q12.98-9.48 12.80-9.29L12.80-9.29L12.80-9.29Q12.62-9.11 12.49-8.98L12.49-8.98L12.49-8.98Q11.66-8.18 10.34-7.81L10.34-7.81L10.34-7.81Q9.03-7.45 6.98-7.45L6.98-7.45L6.98-7.45Q6.75-7.45 6.54-7.45L6.54-7.45L6.54-7.45Q6.33-7.45 6.13-7.48L6.13-7.48L6.13-7.48Q5.89-7.48 5.69-7.49L5.69-7.49L5.69-7.49Q5.48-7.50 5.24-7.53L5.24-7.53L5.24-2.83L5.24-2.83Q5.24-1.38 5.71-0.95L5.71-0.95L5.71-0.95Q6.18-0.52 7.68-0.47L7.68-0.47L7.68 0L0.42 0L0.42-0.49L0.42-0.49Q2.05-0.60 2.32-1.14L2.32-1.14L2.32-1.14Q2.60-1.69 2.60-3.09L2.60-3.09L2.60-14.36L2.60-14.36Q2.60-15.71 2.22-16.12L2.22-16.12L2.22-16.12Q1.84-16.54 0.42-16.67L0.42-16.67ZM5.24-15.32L5.24-15.34L5.24-8.59L5.24-8.59Q5.61-8.54 6.00-8.51L6.00-8.51L6.00-8.51Q6.39-8.49 6.80-8.49L6.80-8.49L6.80-8.49Q7.11-8.49 7.68-8.53L7.68-8.53L7.68-8.53Q8.25-8.57 8.90-8.77L8.90-8.77L8.90-8.77Q9.79-9.09 10.51-9.90L10.51-9.90L10.51-9.90Q11.24-10.72 11.24-12.43L11.24-12.43L11.24-12.43Q11.24-14.07 10.42-14.85L10.42-14.85L10.42-14.85Q9.60-15.63 8.62-15.91L8.62-15.91L8.62-15.91Q7.92-16.12 7.29-16.16L7.29-16.16L7.29-16.16Q6.67-16.20 6.31-16.20L6.31-16.20L6.31-16.20Q5.74-16.20 5.49-16.08L5.49-16.08L5.49-16.08Q5.24-15.96 5.24-15.32L5.24-15.32Z" transform="translate(116.45934199999999 20.871036)" stroke="rgb(7, 160, 74)" stroke-width="2" stroke-linecap="round" stroke-linejoin="round"></path><path fill="rgb(7, 160, 74)" d="M0.47 0L0.47 0L0.47-0.49L0.47-0.49Q2.13-0.52 2.56-0.97L2.56-0.97L2.56-0.97Q2.99-1.43 2.99-2.80L2.99-2.80L2.99-14.36L2.99-14.36Q2.99-15.78 2.53-16.19L2.53-16.19L2.53-16.19Q2.08-16.59 0.47-16.67L0.47-16.67L0.47-17.18L8.18-17.18L8.18-16.69L8.18-16.69Q6.75-16.61 6.19-16.25L6.19-16.25L6.19-16.25Q5.63-15.89 5.63-14.33L5.63-14.33L5.63-2.83L5.63-2.83Q5.63-1.30 6.19-0.91L6.19-0.91L6.19-0.91Q6.75-0.52 8.18-0.47L8.18-0.47L8.18 0L0.47 0Z" transform="translate(137.89254599999998 20.871036)" stroke="rgb(7, 160, 74)" stroke-width="2" stroke-linecap="round" stroke-linejoin="round"></path><path fill="rgb(7, 160, 74)" d="M18.35-17.18L18.35-17.18L18.35-16.69L18.35-16.69Q18.33-16.67 18.29-16.67L18.29-16.67L18.29-16.67Q18.25-16.67 18.22-16.64L18.22-16.64L18.22-16.64Q17.06-16.51 16.47-16.03L16.47-16.03L16.47-16.03Q15.89-15.55 15.89-13.34L15.89-13.34L15.89 0.29L15.45 0.29L4.02-13.94L3.97-13.94L3.97-3.82L3.97-3.82Q3.97-1.79 4.48-1.16L4.48-1.16L4.48-1.16Q4.98-0.52 6.41-0.47L6.41-0.47L6.41 0L0.31 0L0.31-0.49L0.31-0.49Q1.79-0.57 2.31-1.13L2.31-1.13L2.31-1.13Q2.83-1.69 2.83-3.79L2.83-3.79L2.83-15.26L2.83-15.26Q2.41-15.73 2.12-16.02L2.12-16.02L2.12-16.02Q1.82-16.30 1.53-16.46L1.53-16.46L1.53-16.46Q1.27-16.59 0.99-16.63L0.99-16.63L0.99-16.63Q0.70-16.67 0.31-16.67L0.31-16.67L0.31-17.18L4.75-17.18L14.69-4.70L14.74-4.70L14.74-13.37L14.74-13.37Q14.74-15.58 14.16-16.07L14.16-16.07L14.16-16.07Q13.58-16.56 12.25-16.67L12.25-16.67L12.25-17.18L18.35-17.18Z" transform="translate(153.536893 20.871036)" stroke="rgb(7, 160, 74)" stroke-width="2" stroke-linecap="round" stroke-linejoin="round"></path><path fill="rgb(7, 160, 74)" d="M18.40-9.19L18.40-9.19L18.40-8.72L18.40-8.72Q18.38-8.70 18.35-8.70L18.35-8.70L18.35-8.70Q18.33-8.70 18.30-8.70L18.30-8.70L18.30-8.70Q17.50-8.62 17.04-8.33L17.04-8.33L17.04-8.33Q16.59-8.05 16.59-6.70L16.59-6.70L16.59-1.51L16.59-1.51Q16.59-1.35 16.15-1.10L16.15-1.10L16.15-1.10Q15.71-0.86 14.98-0.60L14.98-0.60L14.98-0.60Q14.28-0.31 13.38-0.08L13.38-0.08L13.38-0.08Q12.49 0.16 11.58 0.29L11.58 0.29L11.58 0.29Q11.24 0.31 10.92 0.34L10.92 0.34L10.92 0.34Q10.59 0.36 10.28 0.36L10.28 0.36L10.28 0.36Q9.84 0.36 9.38 0.34L9.38 0.34L9.38 0.34Q8.93 0.31 8.46 0.23L8.46 0.23L8.46 0.23Q6.93 0 5.49-0.62L5.49-0.62L5.49-0.62Q4.05-1.25 2.99-2.39L2.99-2.39L2.99-2.39Q1.95-3.53 1.39-4.91L1.39-4.91L1.39-4.91Q0.83-6.28 0.83-8.83L0.83-8.83L0.83-8.83Q0.83-12.10 3.21-14.81L3.21-14.81L3.21-14.81Q5.58-17.52 9.71-17.52L9.71-17.52L9.71-17.52Q10.70-17.52 11.42-17.39L11.42-17.39L11.42-17.39Q12.15-17.26 12.69-17.11L12.69-17.11L12.69-17.11Q13.24-16.93 13.64-16.80L13.64-16.80L13.64-16.80Q14.04-16.67 14.36-16.67L14.36-16.67L14.36-16.67Q14.43-16.67 14.60-16.69L14.60-16.69L14.60-16.69Q14.77-16.72 14.95-16.80L14.95-16.80L14.95-16.80Q15.16-16.90 15.34-17.07L15.34-17.07L15.34-17.07Q15.52-17.24 15.58-17.52L15.58-17.52L16.15-17.55L16.35-12.07L15.76-12.07L15.76-12.07Q15.65-12.36 15.51-12.67L15.51-12.67L15.51-12.67Q15.37-12.98 15.21-13.32L15.21-13.32L15.21-13.32Q14.59-14.51 13.41-15.50L13.41-15.50L13.41-15.50Q12.23-16.48 10.07-16.48L10.07-16.48L10.07-16.48Q9.58-16.48 9.05-16.39L9.05-16.39L9.05-16.39Q8.51-16.30 7.94-16.09L7.94-16.09L7.94-16.09Q6.39-15.50 5.09-13.71L5.09-13.71L5.09-13.71Q3.79-11.92 3.79-8.28L3.79-8.28L3.79-8.28Q3.79-4.75 5.65-2.70L5.65-2.70L5.65-2.70Q7.50-0.65 10.51-0.65L10.51-0.65L10.51-0.65Q10.54-0.65 10.55-0.65L10.55-0.65L10.55-0.65Q10.57-0.65 10.59-0.65L10.59-0.65L10.59-0.65Q11.89-0.65 12.98-1.06L12.98-1.06L12.98-1.06Q14.07-1.48 14.07-2.18L14.07-2.18L14.07-6.41L14.07-6.41Q14.07-7.92 13.64-8.25L13.64-8.25L13.64-8.25Q13.21-8.59 12.02-8.67L12.02-8.67L12.02-8.67Q11.97-8.67 11.90-8.68L11.90-8.68L11.90-8.68Q11.84-8.70 11.79-8.70L11.79-8.70L11.79-9.19L18.40-9.19Z" transform="translate(179.279291 20.871036)" stroke="rgb(7, 160, 74)" stroke-width="2" stroke-linecap="round" stroke-linejoin="round"></path><path fill="rgb(7, 160, 74)" d="" transform="translate(205.021689 20.871036)" stroke="rgb(7, 160, 74)" stroke-width="2" stroke-linecap="round" stroke-linejoin="round"></path><path fill="rgb(7, 160, 74)" d="M10.72-16.67L10.72-16.69L10.72-17.18L17.52-17.18L17.52-16.69L17.52-16.69Q17.50-16.67 17.46-16.67L17.46-16.67L17.46-16.67Q17.42-16.67 17.39-16.67L17.39-16.67L17.39-16.67Q16.93-16.61 16.56-16.56L16.56-16.56L16.56-16.56Q16.20-16.51 15.86-16.38L15.86-16.38L15.86-16.38Q15.39-16.20 14.87-15.80L14.87-15.80L14.87-15.80Q14.36-15.39 13.58-14.64L13.58-14.64L8.64-9.79L14.69-3.30L14.69-3.30Q15.42-2.47 15.98-1.90L15.98-1.90L15.98-1.90Q16.54-1.32 17.06-0.96L17.06-0.96L17.06-0.96Q17.44-0.73 17.83-0.60L17.83-0.60L17.83-0.60Q18.22-0.47 18.66-0.47L18.66-0.47L18.66-0.47Q18.66-0.47 18.68-0.47L18.68-0.47L18.68-0.47Q18.69-0.47 18.72-0.47L18.72-0.47L18.72-0.47Q18.74-0.47 18.76-0.47L18.76-0.47L18.76-0.47Q18.77-0.47 18.77-0.47L18.77-0.47L18.77 0L10.85 0L10.85-0.49L10.85-0.49Q10.90-0.47 10.94-0.47L10.94-0.47L10.94-0.47Q10.98-0.47 11.03-0.47L11.03-0.47L11.03-0.47Q11.97-0.52 12.32-0.61L12.32-0.61L12.32-0.61Q12.67-0.70 12.67-1.12L12.67-1.12L12.67-1.12Q12.67-1.43 12.25-2.04L12.25-2.04L12.25-2.04Q11.84-2.65 11.27-3.32L11.27-3.32L11.27-3.32Q11.16-3.45 11.05-3.58L11.05-3.58L11.05-3.58Q10.93-3.71 10.82-3.84L10.82-3.84L10.82-3.84Q10.38-4.34 9.97-4.78L9.97-4.78L9.97-4.78Q9.55-5.22 9.29-5.48L9.29-5.48L6.54-8.23L5.87-7.68L5.87-2.83L5.87-2.83Q5.87-1.45 6.28-1.00L6.28-1.00L6.28-1.00Q6.70-0.55 8.20-0.47L8.20-0.47L8.20 0L0.88 0L0.88-0.49L0.88-0.49Q2.41-0.55 2.82-1.03L2.82-1.03L2.82-1.03Q3.22-1.51 3.22-3.09L3.22-3.09L3.22-14.36L3.22-14.36Q3.22-15.86 2.71-16.21L2.71-16.21L2.71-16.21Q2.21-16.56 0.88-16.67L0.88-16.67L0.88-17.18L8.25-17.18L8.25-16.69L8.25-16.69Q6.75-16.56 6.31-16.17L6.31-16.17L6.31-16.17Q5.87-15.78 5.87-14.33L5.87-14.33L5.87-9.03L5.87-9.03Q10.10-12.80 11.27-13.97L11.27-13.97L11.27-13.97Q12.43-15.13 12.49-15.76L12.49-15.76L12.49-15.76Q12.49-15.78 12.49-15.81L12.49-15.81L12.49-15.81Q12.49-15.83 12.49-15.86L12.49-15.86L12.49-15.86Q12.49-16.38 12.08-16.51L12.08-16.51L12.08-16.51Q11.68-16.64 10.72-16.67L10.72-16.67Z" transform="translate(218.511439 20.871036)" stroke="rgb(7, 160, 74)" stroke-width="2" stroke-linecap="round" stroke-linejoin="round"></path><path fill="rgb(7, 160, 74)" d="M18.30-17.18L18.30-17.18L18.30-16.69L18.30-16.69Q16.80-16.51 16.33-15.95L16.33-15.95L16.33-15.95Q15.86-15.39 15.86-13.34L15.86-13.34L15.86-6.59L15.86-6.59Q15.86-6.00 15.82-5.19L15.82-5.19L15.82-5.19Q15.78-4.39 15.52-3.56L15.52-3.56L15.52-3.56Q15.11-2.08 13.72-0.86L13.72-0.86L13.72-0.86Q12.33 0.36 9.14 0.36L9.14 0.36L9.14 0.36Q6.28 0.36 4.95-0.73L4.95-0.73L4.95-0.73Q3.61-1.82 3.14-3.14L3.14-3.14L3.14-3.14Q2.80-4.08 2.75-4.92L2.75-4.92L2.75-4.92Q2.70-5.76 2.70-6.23L2.70-6.23L2.70-14.36L2.70-14.36Q2.70-15.78 2.27-16.17L2.27-16.17L2.27-16.17Q1.84-16.56 0.36-16.67L0.36-16.67L0.36-17.18L7.71-17.18L7.71-16.69L7.71-16.69Q6.18-16.56 5.76-16.13L5.76-16.13L5.76-16.13Q5.35-15.71 5.35-14.33L5.35-14.33L5.35-6.05L5.35-6.05Q5.35-5.58 5.37-5.00L5.37-5.00L5.37-5.00Q5.40-4.41 5.53-3.79L5.53-3.79L5.53-3.79Q5.81-2.65 6.74-1.70L6.74-1.70L6.74-1.70Q7.66-0.75 9.86-0.75L9.86-0.75L9.86-0.75Q11.40-0.75 12.47-1.32L12.47-1.32L12.47-1.32Q13.55-1.90 14.12-2.80L14.12-2.80L14.12-2.80Q14.38-3.24 14.55-4.00L14.55-4.00L14.55-4.00Q14.72-4.75 14.72-6.33L14.72-6.33L14.72-13.37L14.72-13.37Q14.72-15.42 14.19-16.00L14.19-16.00L14.19-16.00Q13.65-16.59 12.28-16.67L12.28-16.67L12.28-17.18L18.30-17.18Z" transform="translate(244.253837 20.871036)" stroke="rgb(7, 160, 74)" stroke-width="2" stroke-linecap="round" stroke-linejoin="round"></path><path fill="rgb(7, 160, 74)" d="M18.33-0.47L18.33-0.49L18.33 0L11.71 0L11.71-0.49L11.71-0.49Q12.43-0.47 12.98-0.60L12.98-0.60L12.98-0.60Q13.52-0.73 13.52-1.45L13.52-1.45L13.52-1.45Q13.52-1.61 13.47-1.82L13.47-1.82L13.47-1.82Q13.42-2.02 13.34-2.23L13.34-2.23L13.34-2.23Q13.32-2.31 13.29-2.40L13.29-2.40L13.29-2.40Q13.27-2.49 13.24-2.57L13.24-2.57L13.24-2.57Q13.19-2.73 13.14-2.86L13.14-2.86L13.14-2.86Q13.08-2.99 13.03-3.09L13.03-3.09L11.97-5.61L5.17-5.61L3.97-2.57L3.97-2.57Q3.95-2.49 3.92-2.43L3.92-2.43L3.92-2.43Q3.89-2.36 3.89-2.28L3.89-2.28L3.89-2.28Q3.82-2.10 3.79-1.91L3.79-1.91L3.79-1.91Q3.76-1.71 3.76-1.56L3.76-1.56L3.76-1.56Q3.76-1.04 4.08-0.80L4.08-0.80L4.08-0.80Q4.39-0.57 4.78-0.52L4.78-0.52L4.78-0.52Q4.98-0.47 5.18-0.47L5.18-0.47L5.18-0.47Q5.37-0.47 5.53-0.47L5.53-0.47L5.53 0L0.39 0L0.39-0.49L0.39-0.49Q0.70-0.49 1.04-0.58L1.04-0.58L1.04-0.58Q1.38-0.67 1.71-1.04L1.71-1.04L1.71-1.04Q1.90-1.25 2.09-1.57L2.09-1.57L2.09-1.57Q2.28-1.90 2.49-2.28L2.49-2.28L2.49-2.28Q2.62-2.52 2.73-2.75L2.73-2.75L2.73-2.75Q2.83-2.99 2.93-3.22L2.93-3.22L2.93-3.22Q3.14-3.63 3.31-4.02L3.31-4.02L3.31-4.02Q3.48-4.41 3.61-4.72L3.61-4.72L9.01-17.50L9.53-17.50L15.99-2.75L15.99-2.75Q16.22-2.18 16.42-1.82L16.42-1.82L16.42-1.82Q16.61-1.45 16.80-1.19L16.80-1.19L16.80-1.19Q17.11-0.78 17.44-0.64L17.44-0.64L17.44-0.64Q17.78-0.49 18.33-0.47L18.33-0.47ZM5.61-6.67L5.61-6.67L11.60-6.67L8.59-13.81L5.61-6.67Z" transform="translate(269.996235 20.871036)" stroke="rgb(7, 160, 74)" stroke-width="2" stroke-linecap="round" stroke-linejoin="round"></path><path fill="rgb(7, 160, 74)" d="M0.47 0L0.47 0L0.47-0.49L0.47-0.49Q2.13-0.52 2.56-0.97L2.56-0.97L2.56-0.97Q2.99-1.43 2.99-2.80L2.99-2.80L2.99-14.36L2.99-14.36Q2.99-15.78 2.53-16.19L2.53-16.19L2.53-16.19Q2.08-16.59 0.47-16.67L0.47-16.67L0.47-17.18L8.18-17.18L8.18-16.69L8.18-16.69Q6.75-16.61 6.19-16.25L6.19-16.25L6.19-16.25Q5.63-15.89 5.63-14.33L5.63-14.33L5.63-2.83L5.63-2.83Q5.63-1.30 6.19-0.91L6.19-0.91L6.19-0.91Q6.75-0.52 8.18-0.47L8.18-0.47L8.18 0L0.47 0Z" transform="translate(295.738633 20.871036)" stroke="rgb(7, 160, 74)" stroke-width="2" stroke-linecap="round" stroke-linejoin="round"></path></g></svg></g> <!----></g><g id="shape_ssAQlMXZRE" transform="translate(149.46916598538513,266.0764598345513) rotate(0,13.70888519028102,0.5875236510120498) scale(0.9592545944370037,0.9592545944370037)" filter="" style="cursor: move; opacity: 1;"><g><rect fill="rgba(0,0,0,0)" width="47.41777038056204" height="21.1750473020241" x="-10" y="-10"></rect><svg version="1.1" id="图层_1" x="0px" y="0px" width="27.41777038056204" height="1.1750473020240997" viewBox="0 97.5 200 5" enable-background="new 0 97.5 200 5" xml:space="preserve" xmlns="http://www.w3.org/2000/svg" xmlns:xlink="http://www.w3.org/1999/xlink" xmlns:xml="http://www.w3.org/XML/1998/namespace" preserveAspectRatio="none" data-parent="shape_ssAQlMXZRE">
  <path fill="#07a04a" d="M197.581,97.5H2.419C1.083,97.5,0,98.619,0,100s1.083,2.5,2.419,2.5h195.162c1.336,0,2.419-1.119,2.419-2.5
	S198.917,97.5,197.581,97.5z" class=""></path>
</svg></g> <!----></g><g id="shape_zzbvwwLc3g" transform="translate(183.2185755954186,261.4306637266162) rotate(0,21.843708501477266,5.1038058598095715) scale(0.9592545944370037,0.9592545944370037)" filter="" style="cursor: move; opacity: 1;"><g><svg xmlns="http://www.w3.org/2000/svg" version="1.1" xmlns:xlink="http://www.w3.org/1999/xlink" overflow="hidden" style="top:0; left: 0" width="43.68741700295453" height="10.207611719619143" viewBox="0 0 97.483781774755 22.7771899" preserveAspectRatio="none" data-parent="shape_zzbvwwLc3g"><rect fill="rgba(0,0,0,0)" width="97.483781774755" height="22.7771899"></rect> <rect opacity="0"></rect><g transform="translate(0 0)" data-width="89.54867809999999"><path fill="rgb(7, 160, 74)" d="M7.97-13.07L8.39-13.07L8.39-13.07Q8.37-12.83 8.35-12.54L8.35-12.54L8.35-12.54Q8.33-12.24 8.32-11.82L8.32-11.82L8.32-11.82Q8.31-11.40 8.31-10.79L8.31-10.79L8.31-10.79Q8.30-10.19 8.30-9.32L8.30-9.32L7.87-9.32L7.87-9.32Q7.82-9.98 7.64-10.62L7.64-10.62L7.64-10.62Q7.45-11.25 7.08-11.75L7.08-11.75L7.08-11.75Q6.72-12.24 6.18-12.54L6.18-12.54L6.18-12.54Q5.63-12.85 4.86-12.85L4.86-12.85L4.86-12.85Q3.87-12.85 3.25-12.26L3.25-12.26L3.25-12.26Q2.62-11.67 2.62-10.72L2.62-10.72L2.62-10.72Q2.62-10.09 2.87-9.64L2.87-9.64L2.87-9.64Q3.12-9.18 3.54-8.80L3.54-8.80L3.54-8.80Q3.96-8.42 4.52-8.08L4.52-8.08L4.52-8.08Q5.08-7.75 5.71-7.36L5.71-7.36L5.71-7.36Q6.42-6.92 7.03-6.49L7.03-6.49L7.03-6.49Q7.64-6.06 8.08-5.58L8.08-5.58L8.08-5.58Q8.52-5.10 8.76-4.53L8.76-4.53L8.76-4.53Q9.01-3.96 9.01-3.23L9.01-3.23L9.01-3.23Q9.01-2.35 8.70-1.70L8.70-1.70L8.70-1.70Q8.39-1.05 7.86-0.61L7.86-0.61L7.86-0.61Q7.34-0.18 6.63 0.04L6.63 0.04L6.63 0.04Q5.91 0.26 5.12 0.26L5.12 0.26L5.12 0.26Q4.15 0.26 3.58 0.05L3.58 0.05L3.58 0.05Q3.01-0.17 2.61-0.42L2.61-0.42L2.61-0.42Q2.20-0.68 1.98-0.68L1.98-0.68L1.98-0.68Q1.80-0.68 1.72-0.48L1.72-0.48L1.72-0.48Q1.63-0.28 1.58 0.13L1.58 0.13L1.16 0.13L1.16 0.13Q1.17-0.15 1.19-0.51L1.19-0.51L1.19-0.51Q1.21-0.88 1.22-1.39L1.22-1.39L1.22-1.39Q1.23-1.89 1.23-2.59L1.23-2.59L1.23-4.28L1.65-4.28L1.65-4.28Q1.71-3.45 1.91-2.69L1.91-2.69L1.91-2.69Q2.11-1.93 2.50-1.36L2.50-1.36L2.50-1.36Q2.88-0.79 3.50-0.45L3.50-0.45L3.50-0.45Q4.11-0.11 4.99-0.11L4.99-0.11L4.99-0.11Q5.43-0.11 5.86-0.25L5.86-0.25L5.86-0.25Q6.30-0.39 6.63-0.68L6.63-0.68L6.63-0.68Q6.97-0.97 7.18-1.44L7.18-1.44L7.18-1.44Q7.38-1.91 7.38-2.55L7.38-2.55L7.38-2.55Q7.38-3.10 7.17-3.55L7.17-3.55L7.17-3.55Q6.96-4.00 6.58-4.40L6.58-4.40L6.58-4.40Q6.20-4.79 5.68-5.16L5.68-5.16L5.68-5.16Q5.16-5.52 4.52-5.91L4.52-5.91L4.52-5.91Q3.85-6.30 3.27-6.70L3.27-6.70L3.27-6.70Q2.68-7.10 2.23-7.58L2.23-7.58L2.23-7.58Q1.78-8.06 1.51-8.65L1.51-8.65L1.51-8.65Q1.25-9.25 1.25-10.02L1.25-10.02L1.25-10.02Q1.25-10.83 1.53-11.43L1.53-11.43L1.53-11.43Q1.82-12.02 2.29-12.42L2.29-12.42L2.29-12.42Q2.77-12.81 3.40-13.00L3.40-13.00L3.40-13.00Q4.02-13.20 4.70-13.20L4.70-13.20L4.70-13.20Q5.16-13.20 5.49-13.13L5.49-13.13L5.49-13.13Q5.82-13.07 6.08-12.98L6.08-12.98L6.08-12.98Q6.35-12.88 6.55-12.77L6.55-12.77L6.55-12.77Q6.75-12.65 7.05-12.45L7.05-12.45L7.05-12.45Q7.34-12.26 7.56-12.26L7.56-12.26L7.56-12.26Q7.75-12.26 7.83-12.46L7.83-12.46L7.83-12.46Q7.91-12.66 7.97-13.07L7.97-13.07Z" transform="translate(0 16.14225505)"></path><path fill="rgb(7, 160, 74)" d="M2.79-0.07L2.79-0.07L2.79-0.07Q2.15-0.07 1.51-0.05L1.51-0.05L1.51-0.05Q0.88-0.02 0.57 0L0.57 0L0.57-0.39L0.57-0.39Q1.34-0.39 1.65-0.66L1.65-0.66L1.65-0.66Q1.96-0.94 1.96-1.71L1.96-1.71L1.96-7.45L1.96-7.45Q1.96-8.28 1.67-8.67L1.67-8.67L1.67-8.67Q1.38-9.07 0.57-9.07L0.57-9.07L0.57-9.45L0.57-9.45Q1.14-9.40 1.71-9.40L1.71-9.40L1.71-9.40Q2.24-9.40 2.73-9.45L2.73-9.45L2.73-9.45Q3.21-9.51 3.62-9.65L3.62-9.65L3.62-1.71L3.62-1.71Q3.62-0.94 3.93-0.66L3.93-0.66L3.93-0.66Q4.24-0.39 5.01-0.39L5.01-0.39L5.01 0L5.01 0Q4.70-0.02 4.07-0.05L4.07-0.05L4.07-0.05Q3.43-0.07 2.79-0.07ZM1.45-12.77L1.45-12.77L1.45-12.77Q1.45-13.25 1.80-13.60L1.80-13.60L1.80-13.60Q2.15-13.95 2.62-13.95L2.62-13.95L2.62-13.95Q3.10-13.95 3.45-13.60L3.45-13.60L3.45-13.60Q3.80-13.25 3.80-12.77L3.80-12.77L3.80-12.77Q3.80-12.30 3.45-11.95L3.45-11.95L3.45-11.95Q3.10-11.60 2.62-11.60L2.62-11.60L2.62-11.60Q2.15-11.60 1.80-11.95L1.80-11.95L1.80-11.95Q1.45-12.30 1.45-12.77Z" transform="translate(9.911106 16.14225505)"></path><path fill="rgb(7, 160, 74)" d="M6.74-9.71L6.74-9.71L6.74-9.71Q7.43-9.71 7.90-9.53L7.90-9.53L7.90-9.53Q8.37-9.34 8.68-9.01L8.68-9.01L8.68-9.01Q9.03-8.64 9.18-8.09L9.18-8.09L9.18-8.09Q9.32-7.54 9.32-6.61L9.32-6.61L9.32-1.71L9.32-1.71Q9.32-0.94 9.64-0.66L9.64-0.66L9.64-0.66Q9.95-0.39 10.72-0.39L10.72-0.39L10.72 0L10.72 0Q10.41-0.02 9.76-0.05L9.76-0.05L9.76-0.05Q9.12-0.07 8.52-0.07L8.52-0.07L8.52-0.07Q7.91-0.07 7.33-0.05L7.33-0.05L7.33-0.05Q6.75-0.02 6.46 0L6.46 0L6.46-0.39L6.46-0.39Q7.12-0.39 7.40-0.66L7.40-0.66L7.40-0.66Q7.67-0.94 7.67-1.71L7.67-1.71L7.67-7.01L7.67-7.01Q7.67-7.43 7.63-7.82L7.63-7.82L7.63-7.82Q7.58-8.20 7.42-8.49L7.42-8.49L7.42-8.49Q7.27-8.77 6.97-8.95L6.97-8.95L6.97-8.95Q6.68-9.12 6.19-9.12L6.19-9.12L6.19-9.12Q5.60-9.12 5.13-8.86L5.13-8.86L5.13-8.86Q4.66-8.61 4.32-8.16L4.32-8.16L4.32-8.16Q3.98-7.71 3.80-7.09L3.80-7.09L3.80-7.09Q3.62-6.48 3.62-5.78L3.62-5.78L3.62-1.71L3.62-1.71Q3.62-0.94 3.89-0.66L3.89-0.66L3.89-0.66Q4.17-0.39 4.83-0.39L4.83-0.39L4.83 0L4.83 0Q4.53-0.02 3.96-0.05L3.96-0.05L3.96-0.05Q3.38-0.07 2.77-0.07L2.77-0.07L2.77-0.07Q2.17-0.07 1.52-0.05L1.52-0.05L1.52-0.05Q0.88-0.02 0.57 0L0.57 0L0.57-0.39L0.57-0.39Q1.34-0.39 1.65-0.66L1.65-0.66L1.65-0.66Q1.96-0.94 1.96-1.71L1.96-1.71L1.96-7.45L1.96-7.45Q1.96-8.28 1.67-8.67L1.67-8.67L1.67-8.67Q1.38-9.07 0.57-9.07L0.57-9.07L0.57-9.45L0.57-9.45Q1.14-9.40 1.71-9.40L1.71-9.40L1.71-9.40Q2.24-9.40 2.73-9.45L2.73-9.45L2.73-9.45Q3.21-9.51 3.62-9.65L3.62-9.65L3.62-7.49L3.62-7.49Q4.09-8.72 4.95-9.21L4.95-9.21L4.95-9.21Q5.80-9.71 6.74-9.71Z" transform="translate(15.3622143 16.14225505)"></path><path fill="rgb(7, 160, 74)" d="M6.90-8.61L6.90-8.61L6.90-8.61Q6.72-8.94 6.25-9.16L6.25-9.16L6.25-9.16Q5.78-9.38 5.25-9.38L5.25-9.38L5.25-9.38Q4.79-9.38 4.32-9.17L4.32-9.17L4.32-9.17Q3.85-8.96 3.48-8.43L3.48-8.43L3.48-8.43Q3.10-7.91 2.86-7.03L2.86-7.03L2.86-7.03Q2.62-6.15 2.62-4.83L2.62-4.83L2.62-4.83Q2.62-3.63 2.84-2.82L2.84-2.82L2.84-2.82Q3.05-2.00 3.41-1.50L3.41-1.50L3.41-1.50Q3.78-0.99 4.25-0.76L4.25-0.76L4.25-0.76Q4.72-0.53 5.25-0.53L5.25-0.53L5.25-0.53Q5.98-0.53 6.72-0.95L6.72-0.95L6.72-0.95Q7.45-1.38 7.93-2.42L7.93-2.42L8.28-2.29L8.28-2.29Q8.13-1.85 7.86-1.39L7.86-1.39L7.86-1.39Q7.60-0.94 7.19-0.57L7.19-0.57L7.19-0.57Q6.77-0.20 6.21 0.03L6.21 0.03L6.21 0.03Q5.65 0.26 4.92 0.26L4.92 0.26L4.92 0.26Q4.06 0.26 3.31-0.07L3.31-0.07L3.31-0.07Q2.57-0.40 2.02-1.04L2.02-1.04L2.02-1.04Q1.47-1.67 1.16-2.57L1.16-2.57L1.16-2.57Q0.84-3.47 0.84-4.61L0.84-4.61L0.84-4.61Q0.84-5.73 1.16-6.67L1.16-6.67L1.16-6.67Q1.47-7.62 2.04-8.29L2.04-8.29L2.04-8.29Q2.61-8.96 3.40-9.33L3.40-9.33L3.40-9.33Q4.18-9.71 5.14-9.71L5.14-9.71L5.14-9.71Q5.71-9.71 6.25-9.57L6.25-9.57L6.25-9.57Q6.79-9.43 7.20-9.17L7.20-9.17L7.20-9.17Q7.62-8.90 7.86-8.53L7.86-8.53L7.86-8.53Q8.11-8.17 8.11-7.71L8.11-7.71L8.11-7.71Q8.11-7.21 7.84-6.95L7.84-6.95L7.84-6.95Q7.56-6.68 7.14-6.68L7.14-6.68L7.14-6.68Q6.72-6.68 6.42-6.94L6.42-6.94L6.42-6.94Q6.13-7.19 6.13-7.67L6.13-7.67L6.13-7.67Q6.13-8.06 6.34-8.30L6.34-8.30L6.34-8.30Q6.55-8.53 6.90-8.61Z" transform="translate(26.429616 16.14225505)"></path><path fill="rgb(7, 160, 74)" d="M5.43-0.51L5.43-0.51L5.43-0.51Q6.26-0.51 6.96-0.92L6.96-0.92L6.96-0.92Q7.65-1.32 8.13-2.35L8.13-2.35L8.50-2.20L8.50-2.20Q8.35-1.74 8.05-1.30L8.05-1.30L8.05-1.30Q7.75-0.86 7.31-0.51L7.31-0.51L7.31-0.51Q6.88-0.17 6.31 0.05L6.31 0.05L6.31 0.05Q5.74 0.26 5.07 0.26L5.07 0.26L5.07 0.26Q4.07 0.26 3.29-0.09L3.29-0.09L3.29-0.09Q2.50-0.44 1.95-1.06L1.95-1.06L1.95-1.06Q1.41-1.69 1.13-2.57L1.13-2.57L1.13-2.57Q0.84-3.45 0.84-4.50L0.84-4.50L0.84-4.50Q0.84-5.71 1.14-6.67L1.14-6.67L1.14-6.67Q1.43-7.64 1.97-8.31L1.97-8.31L1.97-8.31Q2.51-8.99 3.29-9.35L3.29-9.35L3.29-9.35Q4.06-9.71 4.99-9.71L4.99-9.71L4.99-9.71Q6.61-9.71 7.52-8.74L7.52-8.74L7.52-8.74Q8.42-7.76 8.42-5.67L8.42-5.67L2.68-5.67L2.68-5.67Q2.62-5.12 2.62-4.50L2.62-4.50L2.62-4.50Q2.62-3.56 2.86-2.82L2.86-2.82L2.86-2.82Q3.10-2.07 3.50-1.56L3.50-1.56L3.50-1.56Q3.89-1.05 4.40-0.78L4.40-0.78L4.40-0.78Q4.90-0.51 5.43-0.51ZM4.92-9.36L4.92-9.36L4.92-9.36Q4.07-9.36 3.42-8.50L3.42-8.50L3.42-8.50Q2.77-7.64 2.64-6.02L2.64-6.02L6.66-6.02L6.66-6.02Q6.68-6.70 6.59-7.30L6.59-7.30L6.59-7.30Q6.50-7.91 6.28-8.37L6.28-8.37L6.28-8.37Q6.06-8.83 5.72-9.09L5.72-9.09L5.72-9.09Q5.38-9.36 4.92-9.36Z" transform="translate(35.3312575 16.14225505)"></path><path fill="rgb(7, 160, 74)" d="" transform="translate(44.6366848 16.14225505)"></path><path fill="rgb(7, 160, 74)" d="M6.11 0.06L6.11 0.06L6.11 0.06Q5.71 0.02 5.18 0.01L5.18 0.01L5.18 0.01Q4.64 0 4.31 0L4.31 0L2.35 0L2.35 0Q1.95 0 1.59 0.01L1.59 0.01L1.59 0.01Q1.23 0.02 0.88 0.04L0.88 0.04L0.88 0.04Q1.58-0.97 2.50-2.12L2.50-2.12L2.50-2.12Q3.41-3.27 4.23-4.56L4.23-4.56L4.23-4.56Q5.05-5.85 5.61-7.28L5.61-7.28L5.61-7.28Q6.17-8.70 6.17-10.24L6.17-10.24L6.17-10.24Q6.17-11.43 5.63-12.14L5.63-12.14L5.63-12.14Q5.10-12.85 4.26-12.85L4.26-12.85L4.26-12.85Q3.67-12.85 3.11-12.63L3.11-12.63L3.11-12.63Q2.55-12.41 2.10-12.03L2.10-12.03L2.10-12.03Q1.65-11.65 1.38-11.15L1.38-11.15L1.38-11.15Q1.10-10.65 1.10-10.08L1.10-10.08L1.10-10.08Q1.10-9.38 1.49-9.09L1.49-9.09L1.49-9.09Q1.87-8.79 2.53-8.79L2.53-8.79L2.53-8.79Q3.08-8.79 3.51-9.04L3.51-9.04L3.51-9.04Q3.95-9.29 4.31-9.73L4.31-9.73L4.55-9.53L4.55-9.53Q4.11-8.94 3.56-8.69L3.56-8.69L3.56-8.69Q3.01-8.44 2.48-8.44L2.48-8.44L2.48-8.44Q2.20-8.44 1.89-8.53L1.89-8.53L1.89-8.53Q1.58-8.61 1.31-8.79L1.31-8.79L1.31-8.79Q1.05-8.98 0.88-9.29L0.88-9.29L0.88-9.29Q0.72-9.60 0.72-10.06L0.72-10.06L0.72-10.06Q0.72-10.65 1.01-11.22L1.01-11.22L1.01-11.22Q1.30-11.80 1.83-12.25L1.83-12.25L1.83-12.25Q2.35-12.70 3.09-12.98L3.09-12.98L3.09-12.98Q3.84-13.25 4.72-13.25L4.72-13.25L4.72-13.25Q6.15-13.25 7.05-12.51L7.05-12.51L7.05-12.51Q7.95-11.76 7.95-10.39L7.95-10.39L7.95-10.39Q7.95-9.20 7.38-8.07L7.38-8.07L7.38-8.07Q6.81-6.94 5.97-5.82L5.97-5.82L5.97-5.82Q5.12-4.70 4.15-3.61L4.15-3.61L4.15-3.61Q3.18-2.51 2.37-1.41L2.37-1.41L7.97-1.41L7.97-1.41Q7.89-0.83 7.86-0.27L7.86-0.27L7.86-0.27Q7.84 0.29 7.84 0.68L7.84 0.68L7.84 0.68Q7.84 0.94 7.85 1.22L7.85 1.22L7.85 1.22Q7.86 1.51 7.89 1.71L7.89 1.71L7.47 1.71L7.47 1.71Q7.38 0.79 7.05 0.44L7.05 0.44L7.05 0.44Q6.72 0.09 6.11 0.06Z" transform="translate(49.1700981 16.14225505)"></path><path fill="rgb(7, 160, 74)" d="M2.88-6.46L2.88-6.46L2.88-6.46Q2.88-3.23 3.62-1.65L3.62-1.65L3.62-1.65Q4.37-0.07 5.65-0.07L5.65-0.07L5.65-0.07Q7.01-0.07 7.65-1.73L7.65-1.73L7.65-1.73Q8.30-3.40 8.30-6.53L8.30-6.53L8.30-6.53Q8.30-9.76 7.55-11.34L7.55-11.34L7.55-11.34Q6.81-12.92 5.52-12.92L5.52-12.92L5.52-12.92Q4.17-12.92 3.52-11.26L3.52-11.26L3.52-11.26Q2.88-9.60 2.88-6.46ZM1.05-6.39L1.05-6.39L1.05-6.39Q1.05-7.93 1.39-9.20L1.39-9.20L1.39-9.20Q1.73-10.46 2.33-11.36L2.33-11.36L2.33-11.36Q2.94-12.26 3.77-12.76L3.77-12.76L3.77-12.76Q4.61-13.25 5.60-13.25L5.60-13.25L5.60-13.25Q6.61-13.25 7.45-12.80L7.45-12.80L7.45-12.80Q8.30-12.35 8.88-11.50L8.88-11.50L8.88-11.50Q9.47-10.65 9.80-9.42L9.80-9.42L9.80-9.42Q10.13-8.19 10.13-6.61L10.13-6.61L10.13-6.61Q10.13-5.07 9.79-3.80L9.79-3.80L9.79-3.80Q9.45-2.53 8.85-1.63L8.85-1.63L8.85-1.63Q8.24-0.73 7.41-0.24L7.41-0.24L7.41-0.24Q6.57 0.26 5.58 0.26L5.58 0.26L5.58 0.26Q4.55 0.26 3.72-0.19L3.72-0.19L3.72-0.19Q2.88-0.64 2.29-1.50L2.29-1.50L2.29-1.50Q1.71-2.35 1.38-3.58L1.38-3.58L1.38-3.58Q1.05-4.81 1.05-6.39Z" transform="translate(58.18186299999999 16.14225505)"></path><path fill="rgb(7, 160, 74)" d="M6.11 0.06L6.11 0.06L6.11 0.06Q5.71 0.02 5.18 0.01L5.18 0.01L5.18 0.01Q4.64 0 4.31 0L4.31 0L2.35 0L2.35 0Q1.95 0 1.59 0.01L1.59 0.01L1.59 0.01Q1.23 0.02 0.88 0.04L0.88 0.04L0.88 0.04Q1.58-0.97 2.50-2.12L2.50-2.12L2.50-2.12Q3.41-3.27 4.23-4.56L4.23-4.56L4.23-4.56Q5.05-5.85 5.61-7.28L5.61-7.28L5.61-7.28Q6.17-8.70 6.17-10.24L6.17-10.24L6.17-10.24Q6.17-11.43 5.63-12.14L5.63-12.14L5.63-12.14Q5.10-12.85 4.26-12.85L4.26-12.85L4.26-12.85Q3.67-12.85 3.11-12.63L3.11-12.63L3.11-12.63Q2.55-12.41 2.10-12.03L2.10-12.03L2.10-12.03Q1.65-11.65 1.38-11.15L1.38-11.15L1.38-11.15Q1.10-10.65 1.10-10.08L1.10-10.08L1.10-10.08Q1.10-9.38 1.49-9.09L1.49-9.09L1.49-9.09Q1.87-8.79 2.53-8.79L2.53-8.79L2.53-8.79Q3.08-8.79 3.51-9.04L3.51-9.04L3.51-9.04Q3.95-9.29 4.31-9.73L4.31-9.73L4.55-9.53L4.55-9.53Q4.11-8.94 3.56-8.69L3.56-8.69L3.56-8.69Q3.01-8.44 2.48-8.44L2.48-8.44L2.48-8.44Q2.20-8.44 1.89-8.53L1.89-8.53L1.89-8.53Q1.58-8.61 1.31-8.79L1.31-8.79L1.31-8.79Q1.05-8.98 0.88-9.29L0.88-9.29L0.88-9.29Q0.72-9.60 0.72-10.06L0.72-10.06L0.72-10.06Q0.72-10.65 1.01-11.22L1.01-11.22L1.01-11.22Q1.30-11.80 1.83-12.25L1.83-12.25L1.83-12.25Q2.35-12.70 3.09-12.98L3.09-12.98L3.09-12.98Q3.84-13.25 4.72-13.25L4.72-13.25L4.72-13.25Q6.15-13.25 7.05-12.51L7.05-12.51L7.05-12.51Q7.95-11.76 7.95-10.39L7.95-10.39L7.95-10.39Q7.95-9.20 7.38-8.07L7.38-8.07L7.38-8.07Q6.81-6.94 5.97-5.82L5.97-5.82L5.97-5.82Q5.12-4.70 4.15-3.61L4.15-3.61L4.15-3.61Q3.18-2.51 2.37-1.41L2.37-1.41L7.97-1.41L7.97-1.41Q7.89-0.83 7.86-0.27L7.86-0.27L7.86-0.27Q7.84 0.29 7.84 0.68L7.84 0.68L7.84 0.68Q7.84 0.94 7.85 1.22L7.85 1.22L7.85 1.22Q7.86 1.51 7.89 1.71L7.89 1.71L7.47 1.71L7.47 1.71Q7.38 0.79 7.05 0.44L7.05 0.44L7.05 0.44Q6.72 0.09 6.11 0.06Z" transform="translate(69.35938809999999 16.14225505)"></path><path fill="rgb(7, 160, 74)" d="M2.88-6.46L2.88-6.46L2.88-6.46Q2.88-3.23 3.62-1.65L3.62-1.65L3.62-1.65Q4.37-0.07 5.65-0.07L5.65-0.07L5.65-0.07Q7.01-0.07 7.65-1.73L7.65-1.73L7.65-1.73Q8.30-3.40 8.30-6.53L8.30-6.53L8.30-6.53Q8.30-9.76 7.55-11.34L7.55-11.34L7.55-11.34Q6.81-12.92 5.52-12.92L5.52-12.92L5.52-12.92Q4.17-12.92 3.52-11.26L3.52-11.26L3.52-11.26Q2.88-9.60 2.88-6.46ZM1.05-6.39L1.05-6.39L1.05-6.39Q1.05-7.93 1.39-9.20L1.39-9.20L1.39-9.20Q1.73-10.46 2.33-11.36L2.33-11.36L2.33-11.36Q2.94-12.26 3.77-12.76L3.77-12.76L3.77-12.76Q4.61-13.25 5.60-13.25L5.60-13.25L5.60-13.25Q6.61-13.25 7.45-12.80L7.45-12.80L7.45-12.80Q8.30-12.35 8.88-11.50L8.88-11.50L8.88-11.50Q9.47-10.65 9.80-9.42L9.80-9.42L9.80-9.42Q10.13-8.19 10.13-6.61L10.13-6.61L10.13-6.61Q10.13-5.07 9.79-3.80L9.79-3.80L9.79-3.80Q9.45-2.53 8.85-1.63L8.85-1.63L8.85-1.63Q8.24-0.73 7.41-0.24L7.41-0.24L7.41-0.24Q6.57 0.26 5.58 0.26L5.58 0.26L5.58 0.26Q4.55 0.26 3.72-0.19L3.72-0.19L3.72-0.19Q2.88-0.64 2.29-1.50L2.29-1.50L2.29-1.50Q1.71-2.35 1.38-3.58L1.38-3.58L1.38-3.58Q1.05-4.81 1.05-6.39Z" transform="translate(78.37115299999999 16.14225505)"></path></g></svg></g> <!----></g><g id="shape_Q7NM4RrI7F" transform="translate(228.59833143470252,266.0764598345513) rotate(0,13.70888519028102,0.5875236510120498) scale(0.9592545944370037,0.9592545944370037)" filter="" style="cursor: move; opacity: 1;"><g><rect fill="rgba(0,0,0,0)" width="47.41777038056204" height="21.1750473020241" x="-10" y="-10"></rect><svg version="1.1" id="图层_1" x="0px" y="0px" width="27.41777038056204" height="1.1750473020240997" viewBox="0 97.5 200 5" enable-background="new 0 97.5 200 5" xml:space="preserve" xmlns="http://www.w3.org/2000/svg" xmlns:xlink="http://www.w3.org/1999/xlink" xmlns:xml="http://www.w3.org/XML/1998/namespace" preserveAspectRatio="none" data-parent="shape_Q7NM4RrI7F">
  <path fill="#07a04a" d="M197.581,97.5H2.419C1.083,97.5,0,98.619,0,100s1.083,2.5,2.419,2.5h195.162c1.336,0,2.419-1.119,2.419-2.5
	S198.917,97.5,197.581,97.5z" class=""></path>
</svg></g> <!----></g>  <!----></svg>